<svg xmlns="http://www.w3.org/2000/svg" xmlns:xlink="http://www.w3.org/1999/xlink" width="1493" height="808" viewBox="0 0 1493 808">
  <defs>
    <rect id="land-a" width="1493" height="808" x="0" y="0"/>
  </defs>
  <g fill="none" fill-rule="evenodd">
    <mask id="land-b" fill="#fff">
      <use xlink:href="#land-a"/>
    </mask>
    <g stroke="rgba(211, 211, 211, .13)" mask="url(#land-b)">
      <g transform="rotate(-2 -6253.165 3180.628)">
        <path d="M0 905C0 905 10.0680441 923.416643 24.6930028 938.059903 30.6248485 943.998382 37.329697 949.126377 43.1779063 955.1473 48.6345455 960.764883 53.4157576 967.002697 57.1705234 973.881033 62.4180716 983.493963 65.7331129 994.040408 70.8729477 1003.71549 79.1833609 1019.35568 92 1032 92 1032M6 853C6 853 21.7893941 869.949782 37.9282516 886.562173 47.4158665 896.328701 57.144929 905.858418 66.5550266 915.69879 78.765915 928.467464 90.6870663 941.507326 103.80783 953.319846 108.94812 957.947838 114.347648 962.277907 119.593412 966.784947 133.268235 978.537628 146.615197 990.713003 158.130971 1004.59189 165.182508 1013.09161 171.471579 1022.18335 177.941101 1031.13886 186.293912 1042.70184 195 1054 195 1054M12 803C12 803 28.6959212 819.96247 44.349696 837.870194 65.3639874 861.91063 84.7814212 887.307962 106.660148 910.549252 126.147397 931.250809 147.072833 950.683135 169.908659 967.606219 190.529448 982.886545 212.631583 995.960009 233.911171 1010.32684 247.870348 1019.75143 261.353513 1029.86208 274.896338 1039.87745 286.45642 1048.42665 298 1057 298 1057M27 746.665446C27 746.665446 40.3685898 780.589379 59.005251 811.716615 72.4959399 834.247822 88.6066741 855.070501 106.09484 874.671533 123.280301 893.934418 141.775785 911.997266 161.747906 928.349044 178.787103 942.299476 196.841249 954.940546 215.30748 966.94346 235.597568 980.131157 256.383684 992.538321 277.604778 1004.16877 287.75173 1009.72911 298.153055 1015.20174 305.625271 1023.97319 318.934083 1039.59529 322.238393 1064.63081 341.61528 1065.9478 347.188599 1066.3279 352.676704 1064.71852 358.262742 1064.4058 373.620531 1063.54391 385.479415 1072.10689 379.228191 1064.79861 375.406232 1060.33025 370.538798 1056.8026 367.290451 1051.91092 365.780745 1049.63543 364.731455 1047.10315 363.590591 1044.61917 355.867817 1027.82119 342.683648 1014.41358 327.835877 1003.29798 312.228802 991.61414 294.973388 982.388854 277.431804 973.857658 262.614558 966.651078 247.549299 959.949176 233.039845 952.147663 209.707452 939.603206 187.989058 924.286206 168.022024 906.874226 147.607294 889.071979 129.135975 869.174752 112.553378 847.755868 99.0881267 830.361685 86.8985573 812.006455 76.489601 792.63043 67.1897125 775.322691 59.291421 757.164501 56.1486386 737.799917 53.8503757 723.641004 54.1390894 709.114706 58.3209867 695.410892 62.6885766 681.103245 71.0994304 668.350307 82.6479791 658.842809 100.302759 644.306342 123.295564 638.991346 146.219687 637.126458 170.170207 635.177669 194.249185 636.977725 217.84867 641.535069 244.826232 646.744553 271.052121 655.521096 298.284057 659.05129 314.735651 661.184407 331.633671 661.414499 346.982557 655.29736 356.43507 651.528176 364.878992 645.515277 370.953427 637.365449 378.173813 627.679979 381.465404 615.762237 382.30738 603.676693 382.981469 594.006478 382.083531 584.230751 378.487965 575.246998 373.859642 563.682656 365.161346 554.430675 356.310427 545.596926 344.148838 533.459262 331.453066 521.87331 318.796722 510.251763 304.324152 496.962368 289.859213 483.587801 277.654381 468.205968 268.920473 457.199695 261.422819 445.266698 255.218654 432.65868 244.515897 410.905463 237.822063 387.483127 232.518379 363.806546 227.483059 341.333816 223.694169 318.595399 221.434062 295.677739 219.686517 277.946681 218.84327 260.052906 221.816894 242.507447 224.819771 224.794186 231.620441 208.020362 236.875794 190.818133 245.356601 163.059646 249.850105 133.989253 262.753192 108.056246 266.746853 100.029726 271.508722 92.3934726 275.069948 84.1686414 278.744371 75.6832089 281.41529 65.9011261 289.866844 62.8565402 296.299945 60.5390955 303.662781 63.0014599 306.044987 69.3067401 309.152157 77.5341137 300.714594 84.1978796 294.927601 91.4654777 287.114525 101.27807 283.137398 113.406836 278.96186 125.282628 273.661992 140.350467 267.962757 155.281015 263.245404 170.539539 256.669854 191.810961 252.012279 213.609942 247.858362 235.487738 245.066615 250.188194 242.50126 264.948397 241.455786 279.870046 239.719688 304.672934 242.197284 329.524127 246.278704 354.066414 249.579198 373.920419 253.946788 393.661285 261.987528 412.090246 268.72079 427.522928 277.894764 441.727605 288.093862 455.137767 296.905354 466.722448 306.485053 477.709653 316.963962 487.810813 329.994235 500.370525 344.329443 511.470869 358.113934 523.204283 368.586483 532.118119 378.747425 541.398067 388.27625 551.311086 394.164992 557.438395 399.860411 563.855543 403.41655 571.551544 407.218159 579.78146 408.313236 588.910133 408.790186 597.987957 409.265864 607.040356 409.13359 616.141062 407.42293 625.0371 405.329437 635.936591 400.932594 646.204282 396.559917 656.421124 392.455603 666.012523 388.263531 675.818759 380.427561 682.609648 373.470451 688.6378 364.473267 691.57179 355.268768 692.291304 338.669637 693.587954 322.654293 687.589039 306.544831 683.052034 289.192755 678.166713 271.442584 674.894578 253.652986 671.946605 239.317778 669.570684 224.945686 667.404515 210.512543 665.730311 199.797067 664.487052 189.049795 663.512022 178.275813 662.985734 162.859518 662.231897 147.302046 662.390801 132.460634 666.522285 123.02084 669.149908 114.044006 673.336055 106.499293 679.572689 100.849662 684.244444 96.1526586 689.943349 92.3752148 696.229561 86.5030067 706.000203 82.9506833 717.028087 82.6632415 728.413186 82.3109344 742.377602 86.8960135 755.829714 91.6998536 769.000885 95.2839737 778.82746 99.0296208 788.605729 103.678293 797.972121 111.631275 813.994652 122.108912 828.579426 133.375106 842.487908 147.019691 859.330379 161.833121 875.19782 177.880262 889.769882 193.222789 903.701246 209.648946 916.408419 227.275745 927.301554 245.600799 938.625634 265.098514 947.915752 285.33264 955.310473 303.605547 961.988222 322.458425 967.107449 340.118293 975.243294 348.541866 979.123075 356.671637 983.682962 363.691069 989.728912 372.010348 996.893541 378.498139 1005.90526 383.212949 1015.82718 389.662584 1029.40006 392.729055 1044.55815 401.562168 1056.64751 405.579995 1062.14811 410.638208 1066.79571 416.355249 1070.5026 423.935574 1075.41462 433.643731 1079.29821 436.44311 1071.81196 438.640895 1065.93382 433.812889 1060.4256 431.010967 1054.55507 426.899023 1045.93871 426.98551 1036.10196 425.86118 1026.56649 424.636372 1016.19456 421.951462 1006.07052 418.850651 996.092669 415.918998 986.657631 412.614689 977.324291 410.596237 967.656618 409.756805 963.635731 409.115784 959.448313 406.531351 956.299486 402.820044 951.777736 396.511586 951.119241 390.619028 950.20523 386.278147 949.53148 381.96016 948.688657 377.583667 948.326358 369.902865 947.692016 362.180091 948.547551 354.478939 948.166183 346.121503 947.750493 337.923051 945.889418 329.649559 944.587683 320.663822 943.17408 311.578879 942.418971 302.647831 940.69646 289.637908 938.188332 277.124013 933.666582 265.087067 928.112596 250.190966 921.239078 236.078334 912.805765 222.653782 903.369456 207.874692 892.980998 193.956656 881.403945 181.29904 868.517528 169.208676 856.20952 158.343119 842.779019 147.826055 829.098086 137.088957 815.129857 126.603689 800.757377 120.852308 784.151354 116.31556 771.048829 114.930497 757.14289 114.202989 743.273816 113.676437 733.242573 113.475482 722.887167 118.392518 714.223763 121.792217 708.236289 127.225631 703.785728 132.993546 699.979677 141.241601 694.538831 150.268038 690.357769 159.831203 687.88015 180.95182 682.407523 203.013618 685.686014 224.700215 688.862807 241.729237 691.358224 258.782424 693.8333 275.456595 698.077924 294.409951 702.900954 312.701937 709.972784 330.294396 718.525591 337.893798 722.219774 345.354568 726.191083 353.003574 729.781025 362.130488 734.065056 371.513048 737.806274 380.445367 742.4793 383.798008 744.233591 387.135385 746.145515 390.870858 746.642564 395.260069 747.227328 399.634018 745.783216 403.168536 743.092031 408.768564 738.828339 411.491631 732.019654 413.356187 725.17156 416.624884 713.172459 417.370198 700.681394 418.675133 688.299654 419.950815 676.196313 421.770857 664.159076 423.885971 652.172687 426.76802 635.841249 430.214779 619.565744 430.976627 603.011841 431.411605 593.576803 430.974083 584.036253 427.768979 575.175809 423.459895 563.269508 414.597529 553.816673 405.298912 545.135471 393.296307 533.930887 380.34489 523.810658 367.450706 513.63958 358.481503 506.565208 349.533921 499.457784 340.925928 491.948653 330.778977 483.098379 321.115334 473.700206 312.333095 463.497348 302.608403 452.197421 294.033479 439.977127 285.560304 427.704713 278.673146 417.728133 271.770726 407.595191 268.467689 395.967289 267.123326 391.231972 266.407265 386.350465 265.61362 381.489297 262.587849 362.952282 258.417399 344.58434 256.908965 325.869353 256.000852 314.608835 256.068261 303.296196 256.847915 292.024236 258.121054 273.615615 261.290545 255.409118 264.744935 237.276353 269.056563 214.638363 273.829878 192.079189 280.162502 169.924265 284.135813 156.025953 288.720892 142.300528 294.426486 129.020032 300.320315 115.302234 307.391894 102.105638 316.031684 89.9323794 321.152218 82.7181727 326.800578 75.8967749 326.800578 75.8967749"/>
        <path d="M51.3933434 644C51.3933434 644 60.7562599 635.292056 71.6675657 628.838712 92.8114836 616.332812 117.826375 613.3886 142.502556 612.740976 159.598505 612.29311 176.723742 612.956002 193.595582 615.718268 209.353245 618.297316 224.75819 622.615662 240.303204 626.281294 253.740829 629.450711 267.343989 632.158265 281.134331 632.163355 289.245548 632.167172 297.317291 631.207822 305.283347 629.673371 315.93489 627.622348 326.597893 624.508914 334.566495 617.243812 341.367438 611.043665 345.501994 602.440053 345.957852 593.253707 346.453184 583.240335 342.522364 573.697732 337.337297 565.058495 327.728625 549.046006 313.872068 536.211841 300.580878 523.032869 287.683152 510.244508 275.214543 497.007009 264.117329 482.635848 249.481485 463.680421 237.405067 442.902992 227.535359 421.080966 215.507328 394.487639 206.847299 366.531628 200.120209 338.121389 193.484801 310.099216 188.621891 281.452321 191.540401 252.855047 193.71273 231.575041 200.104929 211.039358 206.092204 190.475684 214.281095 162.345361 221.377455 133.89568 230.181373 105.95112 233.309985 96.0217228 236.7251 86.1724837 241.505243 76.9301541 245.11518 69.9526025 249.368157 63.2295203 250.931826 55.5623565 256.850341 26.5566591 216.426684 26.2029466 183.505585 39.2432323 168.1121 45.341592 151.589156 55.5140073 160.491121 66.8455308 161.831955 68.550476 163.465658 69.9958623 164.814132 71.6957181 171.003869 79.4977506 167.83833 90.352144 166.735612 100.511836 165.637987 110.626995 166.272114 120.836309 165.510653 130.987094 165.015321 137.59821 163.860396 144.138074 162.672364 150.661398 158.590015 173.073792 153.460975 195.291518 149.816658 217.777709 147.028029 234.987476 145.068349 252.41227 147.082783 269.70474 149.148151 287.438714 155.280587 304.358386 160.221172 321.540161 164.2997 335.72556 167.586208 350.131074 172.040373 364.200688 181.986483 395.623845 197.486929 424.887829 213.579481 453.687406 225.009039 474.141659 236.657613 494.496668 249.830382 513.87197 256.767573 524.074922 264.082949 534.018314 271.99043 543.489666 274.8822 546.954268 277.83127 550.390877 280.078727 554.299528 283.63391 560.484407 285.379668 567.780045 282.862262 574.387344 280.864382 579.634504 276.490436 583.487171 271.414878 585.950435 256.175467 593.345316 238.856682 586.250709 221.876607 583.041849 206.936433 580.218511 191.647362 580.181613 176.485626 578.881274 142.266987 575.945969 107.609043 566.070011 75.479965 577.279389 65.5211224 580.754169 55.9060833 586.32196 45.5372231 585.122137 40.5291515 584.541946 35.8814369 582.359871 32.1530785 578.965249 16.7888801 564.980882 28.9493388 542.311473 42.622533 524.717457 49.8755144 515.386063 58.1751866 506.639949 69.0139117 502.05441 73.2223217 500.274396 77.6892211 499.15982 82.2516214 498.938432 88.90613 498.615256 95.4625909 500.150979 101.940104 501.774494 113.750393 504.735245 125.653635 508.019173 137.73642 506.931316 145.325565 506.248066 152.814115 503.84333 158.141797 498.45494 162.342567 494.207845 164.727545 488.553535 165.452079 482.612946 166.912607 470.636342 161.415571 459.270465 156.739842 448.025462 149.07557 429.592969 143.045001 410.529392 135.589558 392.010379 128.424437 374.211515 119.931216 356.936858 114.052176 338.67995 110.372205 327.254272 107.579756 315.220413 99.5194727 306.450125 82.5152041 287.950197 52.6705099 295.591914 52.6705099 295.591914M264.258358 829.681242C263.360814 838.786255 264.719736 848.090416 269.629757 855.750652 273.294309 861.468874 278.718652 865.824769 285.172902 867.804836 291.323349 869.692306 297.984337 869.353627 303.854932 866.721571 309.472146 864.203676 314.056933 859.736156 316.354999 853.993833 319.119486 847.084526 318.214378 839.382431 315.021289 832.618998 310.210855 822.430719 301.029936 815.011491 290.480011 811.03994 284.846408 808.920341 278.733779 807.880203 273.557773 810.797664 267.164031 814.403898 264.993286 822.217618 264.258358 829.681242z"/>
        <path d="M223.894542,846.4222 C232.081438,857.240467 241.919964,866.65613 251.628701,876.14186 C258.334473,882.693715 265.049153,889.444303 273.566883,893.278851 C283.583551,897.787312 294.820492,898.201341 305.860204,897.93891 C315.0167,897.722341 324.227912,897.02932 332.5306,893.216428 C343.304372,888.26846 351.97225,879.242621 355.813755,868.002681 C359.078842,858.445611 358.409537,848.214629 355.631795,838.449907 C350.781244,821.404639 340.653874,806.491941 328.494412,793.576775 C314.963258,779.202951 298.826141,767.322221 280.312101,760.58692 C269.425083,756.627526 257.959103,754.603241 246.379875,754.102584 C236.68259,753.682185 226.879693,754.435082 218.157099,758.600853 C208.372015,763.274926 200.668648,771.842147 198.558938,782.441297 C196.734255,791.604721 199.662146,800.757954 203.224985,809.466582 C208.592148,822.585578 215.352635,835.132577 223.894542,846.4222 Z"/>
        <path d="M224.285664 881.642891C230.921899 888.28433 237.517522 895.030079 245.323886 900.21755 253.179746 905.436823 261.939221 909.069834 270.751999 912.450977 280.13715 916.053458 289.617486 919.557991 299.548359 921.050121 310.929838 922.761045 322.49534 922.013072 333.843822 919.98286 346.114955 917.788552 358.596762 914.478645 367.49457 905.82353 375.68421 897.857874 379.730168 886.839267 382.580614 875.666741 386.709066 859.487376 388.86911 842.713957 384.903106 826.547313 378.466123 800.302116 358.342937 780.429953 337.463355 762.944179 323.305039 751.087283 308.338293 740.256942 292.014856 731.648894 279.482284 725.039256 266.275808 719.722034 252.386546 717.045614 234.815562 713.660655 216.799118 715.092998 198.97431 716.936217 187.043302 718.170118 174.877506 719.607548 164.535437 725.592603 158.376392 729.156923 153.23772 734.25535 150.04588 740.618208 146.128103 748.423584 145.426279 757.373817 146.381927 766.084902 147.826187 779.23803 152.962321 791.630465 159.032528 803.418669 163.287891 811.684533 168.115628 819.622204 173.647727 827.089212 188.434259 847.050419 206.721026 864.064257 224.285664 881.642891zM331.888757 91.0479585C331.888757 91.0479585 325.372256 102.75101 319.022032 114.54563 309.946656 131.403263 301.178447 148.470743 294.787606 166.513688 289.92752 180.236349 286.523303 194.414312 283.048005 208.557936 279.118304 224.549477 275.108638 240.538475 272.62592 256.814899 269.695145 276.026623 268.914536 295.488891 269.007193 314.929539 269.080812 330.358947 269.772571 345.793443 272.175324 361.029539 275.03375 379.139889 280.176886 396.848353 288.037558 413.399484 293.591941 425.096176 300.432109 436.142982 308.617717 446.165992 316.266418 455.534029 324.935623 463.995277 333.985613 472.017755 348.417364 484.812006 363.617031 496.710913 379.43357 507.743729 390.00543 515.117592 400.807031 522.16842 411.003184 530.053544 419.44011 536.579121 427.40994 543.781292 433.366686 552.617719 440.288088 562.886186 444.217789 574.83978 446.11029 587.106236 447.397344 595.45175 447.743858 603.905367 447.536965 612.351353 447.187912 626.536947 445.583538 640.664038 445.531497 654.850903 445.494688 665.16897 446.307029 675.478135 448.057371 685.643586 449.604627 694.628813 451.942647 703.477958 455.678148 711.785318 460.707048 722.96439 467.990196 732.927627 475.59701 742.553838 481.145048 749.575414 486.853015 756.485072 491.633135 764.047161 495.886504 770.776225 499.173947 778.053432 501.650319 785.620608 506.292088 799.810017 507.867269 814.868061 506.061079 829.680649 504.221887 844.759043 498.733506 859.065457 494.362094 873.63386 489.607359 889.472786 486.146024 905.67163 481.462368 921.532177 476.114878 939.638712 469.565376 957.356079 464.217886 975.46007 458.864049 993.585683 454.945771 1012.23782 456.221401 1031.04002 456.980432 1042.22927 459.770317 1053.26081 459.318452 1064.45133 459.139483 1068.86573 458.564498 1073.45309 460.982483 1077.05354 464.956609 1082.96739 473.359264 1080.69596 480.806149 1079.91635 485.472034 1079.42925 490.742099 1079.38601 492.540673 1075.27303 494.218665 1071.43348 491.457974 1067.47312 489.812983 1063.46824 487.992831 1059.04112 487.48004 1054.22356 487.087832 1049.44543 486.120638 1037.6648 486.731163 1025.83076 488.374885 1014.13152 490.919798 996.01481 496.47799 978.486941 501.414232 960.864959 505.533057 946.154115 509.531299 931.408931 513.467347 916.647215 519.16389 895.281071 524.722081 873.878045 530.592517 852.558957 534.220128 839.386983 537.979745 826.217554 539.807513 812.685662 540.906713 804.542363 541.255766 796.313854 540.814055 788.108237 540.352036 779.514723 539.020558 770.909763 535.22667 763.212864 530.578555 753.778694 522.693767 746.524379 514.946062 739.362906 504.5354 729.743054 494.131085 720.049438 485.511382 708.804232 477.096034 697.824832 470.678538 685.449002 466.751375 672.180372 461.25284 653.596914 460.676585 634.004923 460.811129 614.585896 460.901248 601.434271 461.392461 588.206338 458.871664 575.320519 457.092129 566.217015 453.686642 557.521757 448.638703 549.753638 440.083733 536.588023 427.44548 526.795207 414.294435 518.167355 403.817771 511.294578 392.885434 505.151812 382.366884 498.341353 371.767099 491.478751 361.720722 483.804745 352.126209 475.588953 340.328221 465.487091 329.301957 454.494973 319.598286 442.364599 309.911116 430.254574 301.643005 417.036816 295.575831 402.760925 290.605318 391.068048 287.173176 378.793961 284.692996 366.324018 282.300397 354.291573 280.735371 342.10524 280.140077 329.848958 279.556207 317.831774 279.879874 305.794241 280.586865 293.780872 281.305279 281.579277 282.40067 269.399303 284.26144 257.319801 286.283408 244.188525 289.164681 231.208592 292.431816 218.330403 296.880654 200.794904 302.116448 183.467978 308.484442 166.537852 317.987566 141.274931 329.870596 116.916254 345.333005 94.822644 347.031306 92.3960605 348.771494 90 348.771494 90"/>
        <path d="M356.956297,98 C356.956297,98 347.918775,111.724433 339.731738,125.960052 C328.0347,146.300646 317.994139,167.610203 311.248732,190.076921 C307.888742,201.265774 305.377966,212.683516 302.685397,224.054208 C300.18352,234.628876 297.45027,245.156494 295.536996,255.851964 C293.113938,269.399644 292.024452,283.139337 291.454919,296.894289 C290.736646,314.235167 290.786226,331.607835 292.204973,348.904207 C292.770693,355.802664 293.549987,362.687134 294.921697,369.469875 C296.233656,375.955061 298.08591,382.315629 300.231829,388.575741 C303.338835,397.63847 307.067496,406.493928 312.048367,414.67162 C316.636413,422.204608 322.222413,429.062374 327.871976,435.842572 C333.918179,443.09835 340.066084,450.271475 346.620799,457.069475 C358.869572,469.774081 372.314618,481.339329 387.207651,490.798799 C394.100526,495.176935 401.259098,499.107466 408.327409,503.19822 C413.627371,506.26406 418.80529,509.533356 423.988295,512.79248 C435.516252,520.040629 447.196764,527.363802 455.941892,537.75663 C461.224056,544.033273 465.242569,551.253446 468.097861,558.950471 C471.061213,566.933608 472.871514,575.299498 473.68259,583.781103 C474.550873,592.856548 474.341112,601.991759 474.877592,611.09518 C475.224651,617.015773 475.970892,622.902032 476.726032,628.784477 C478.401578,641.845133 480.250017,654.964282 484.890185,667.265789 C488.884544,677.853173 494.829044,687.588581 502.149069,696.222779 C507.941016,703.053842 514.481746,709.194423 521.336482,714.962423 C532.584759,724.425708 544.558935,733.119671 554.042677,744.32124 C561.92842,753.639562 567.914873,764.584267 569.445493,776.661971 C571.053661,789.35259 567.622479,801.968184 564.019674,814.304024 C560.694008,825.69379 557.242486,837.044137 553.990554,848.454249 C548.413453,868.026794 543.876259,887.876549 538.89793,907.611859 C532.593658,932.60017 525.7974,957.477851 520.948742,982.785335 C518.601961,995.035978 516.838697,1007.38962 515.614456,1019.80176 C514.601246,1030.07378 514.17791,1040.42338 516.108983,1050.54027 C517.925641,1060.06205 521.818297,1069.10951 527.639484,1076.84596 C532.132183,1082.81742 537.916503,1087.59357 544.087291,1091.81275 C584.933485,1119.74864 637.555535,1120.80407 686.681569,1112.37588 C701.569517,1109.82122 716.359576,1106.3739 730.051251,1100.01079 C738.346346,1096.15528 746.210478,1091.45034 753.891546,1086.47201 C769.026122,1076.66285 783.74499,1066.18609 797.135371,1054.10076 C809.595177,1042.85469 820.975666,1030.49341 832.647278,1018.42334 C844.800705,1005.85734 857.429591,993.656286 872.064554,984.130693 C885.198137,975.584235 899.669106,969.395334 914.372719,963.946506 C928.914879,958.557444 943.701125,953.84869 958.206418,948.362986 C974.055453,942.36864 989.497679,935.368454 1004.88143,928.260182 C1020.38467,921.095959 1035.82308,913.795675 1051.25133,906.469958 C1069.36324,897.870093 1087.45989,888.901463 1106.9664,884.384721 C1117.57141,881.929252 1128.41796,880.807696 1139.29629,880.285067 C1154.31137,879.564067 1169.35441,879.710301 1184.36313,880.581351 C1190.942,880.962832 1197.57808,881.468931 1203.97897,879.976067 C1210.75616,878.396733 1216.77566,874.692548 1222.90323,871.349498 C1229.85712,867.553757 1237.02968,864.126781 1244.59887,861.801016 C1249.56068,860.277633 1254.66105,859.271793 1259.82244,858.71483 C1268.14932,857.815806 1276.54866,858.00146 1284.9035,858.634719 C1294.38343,859.353176 1303.81378,860.627324 1313.30515,861.146139 C1327.51677,861.921818 1341.77544,860.877831 1355.71628,858.017991 C1367.3968,855.622287 1378.79,851.865966 1389.12423,845.933928 C1399.98095,839.701792 1409.34646,831.253248 1417.89581,822.08879 C1429.5598,809.582555 1439.64104,795.625418 1452.15169,783.98133 C1462.40202,774.443021 1474.05075,766.592131 1485.72617,758.848056 C1495.96505,752.057685 1506.223,745.232981 1515.15882,736.816227 C1524.28788,728.217634 1531.8558,718.066411 1537.17865,706.714793 C1541.94467,696.550854 1544.77072,685.620137 1546.56831,674.529197 C1549.40962,656.995035 1549.83677,639.186207 1550.00077,621.412983 C1550.08848,612.020908 1550.16349,602.627562 1550.63005,593.24566 C1551.23391,581.112004 1552.64884,569.006324 1555.81305,557.284669 C1559.5023,543.618729 1565.57266,530.757716 1571.27053,517.787344 C1577.95111,502.576405 1584.14478,487.153107 1591.05672,472.047711 C1595.90665,461.447611 1601.01338,450.95687 1604.9162,439.977832 C1610.34202,424.70967 1613.26596,408.702706 1615.95091,392.712272 C1618.05741,380.164073 1619.86009,367.570097 1621.39452,354.939244 C1623.44382,338.080304 1625.01131,321.085303 1623.20991,304.217462 C1620.72837,280.983966 1611.75568,259.036063 1611.75568,259.036063"/>
        <path d="M776.292069,1112.39702 C776.292069,1112.39702 763.01313,1122.28179 768.203433,1115.7928 C772.989495,1109.80981 780.061172,1106.27163 786.518861,1102.08507 C806.057181,1089.41857 821.492073,1071.49883 838.121892,1055.15431 C849.937681,1043.53922 862.136102,1032.30045 875.184954,1022.09529 C887.239729,1012.66948 900.035613,1004.24676 913.408621,996.809337 C935.146115,984.720033 958.208198,975.25226 980.735106,964.692395 C999.347994,955.968365 1017.61512,946.529834 1035.98266,937.298533 C1051.55612,929.469536 1067.22999,921.733348 1083.82676,916.440701 C1097.88494,911.957908 1112.58127,909.007095 1127.18226,910.905227 C1137.7421,912.277017 1147.80999,915.934703 1157.86136,919.511021 C1166.48644,922.580069 1175.19924,925.393575 1184.01881,927.844746 C1191.8138,930.011133 1199.77913,931.621938 1207.84234,931.279944 C1221.61069,930.695121 1234.22098,924.16799 1246.31643,917.436172 C1260.01741,909.810591 1273.24042,901.080204 1288.09564,896.128281 C1292.77747,894.568329 1297.56607,893.377071 1302.38773,892.321847 C1317.25948,889.064638 1332.19479,886.115097 1347.13518,883.187169 C1356.73782,881.305566 1366.34427,879.394721 1375.74351,876.677838 C1384.19443,874.235567 1392.43561,871.088966 1400.22679,867.005377 C1408.47941,862.681503 1416.17906,857.371058 1423.20497,851.249489 C1428.61901,846.532766 1433.62117,841.37234 1438.41105,836.022483 C1445.83358,827.731985 1452.85059,819.077879 1460.68372,811.178957 C1469.35329,802.435857 1478.9483,794.658985 1489.16111,787.78096 C1497.72898,782.010285 1506.72144,776.884186 1515.06559,770.795673 C1521.69616,765.958171 1527.84368,760.492621 1533.52975,754.571926 C1540.43617,747.381148 1546.57606,739.489855 1551.77272,730.981955 C1558.25201,720.373778 1563.24147,708.920151 1566.92794,697.044434 C1568.60593,691.637366 1569.97628,686.142575 1571.13053,680.5982 C1576.84838,653.145856 1578.42339,625.019694 1583.1281,597.369019 C1587.8989,569.329309 1595.63415,541.902392 1603.27659,514.497088 C1609.67199,491.565678 1616.09282,468.638082 1621.88058,445.546482 C1625.58613,430.759365 1628.99802,415.888338 1631.06753,400.788468 C1633.40527,383.738342 1634.00273,366.512768 1634.83918,349.318978 C1635.55486,334.610685 1636.46123,319.89095 1635.72902,305.189014 C1634.99681,290.525218 1632.64001,276 1632.64001,276"/>
        <path d="M814 1120C814 1120 834.314771 1102.95515 853.318953 1084.4973 871.210849 1067.11826 887.939614 1048.41517 908.125996 1033.81002 923.807306 1022.46415 941.186916 1013.78162 958.251273 1004.61496 973.438092 996.457217 988.454574 987.98943 1003.62741 979.803733 1022.6621 969.532855 1041.84933 959.343301 1062.34715 952.480378 1066.25477 951.172852 1070.21578 950.049574 1074.23017 949.125792 1089.93818 945.510718 1106.24745 943.834696 1122.05842 946.834763 1129.53043 948.252838 1136.75838 950.648063 1143.94564 953.156378 1149.25029 955.006483 1154.59943 956.715543 1159.98416 958.316595 1175.89301 963.048594 1192.33703 966.320585 1208.87384 965.362495 1222.82635 964.554345 1236.40893 960.638121 1248.99364 954.53125 1257.6898 950.312604 1265.88766 945.167636 1274.11094 940.079847 1289.14013 930.778496 1304.50492 921.911716 1321.11546 915.92683 1337.55821 910.002937 1354.91621 907.203637 1371.86235 902.878255 1382.97884 900.039564 1393.90974 896.518519 1404.47454 892.050821 1418.60247 886.077371 1432.00582 878.453313 1443.96002 868.852082 1455.16804 859.850611 1464.8875 849.1782 1475.43959 839.407969 1485.43744 830.149821 1496.14461 821.702364 1506.61153 812.974088 1514.90854 806.055255 1523.02377 798.921678 1531.16697 791.82368 1538.16991 785.720621 1545.16777 779.585795 1551.25038 772.572932 1558.51774 764.194092 1564.29145 754.667831 1569.61643 744.930638 1576.36641 732.589829 1582.33716 719.811907 1586.50155 706.383399 1591.10578 691.538087 1593.41424 676.113346 1596.37864 660.846169 1599.59473 644.272737 1603.57735 627.860681 1607.20403 611.372384 1609.96123 598.83462 1612.53537 586.257465 1615.30655 573.723513 1618.15146 560.84902 1621.19467 548.020271 1624.05102 535.14959 1627.35991 520.236932 1630.40947 505.268364 1633.56963 490.322668 1636.43234 476.787424 1639.33953 463.258532 1641.4802 449.592407 1644.18782 432.311209 1645.67511 414.866092 1646.71621 397.404457 1647.73569 380.33165 1648.27213 363.23724 1648.63823 346.137748 1649.11747 323.797986 1649.40857 301.43027 1647.58442 279.166749 1647.04417 272.57448 1646.31578 266 1646.31578 266M1301 1197C1301 1197 1327.18761 1188.81257 1353.48458 1180.97636 1365.8618 1177.28858 1378.37381 1173.92148 1390.21565 1168.76902 1416.65378 1157.26539 1439.62533 1139.31133 1465.77479 1127.15108 1482.60032 1119.32632 1500.60089 1114.28076 1517.41498 1106.43818 1544.95819 1093.59204 1569.4354 1075.24222 1593.09111 1056.08435 1598.06081 1052.06063 1603 1048 1603 1048M977 1149C977 1149 999.130607 1135.45643 1022.18073 1123.59708 1037.656 1115.63453 1053.60566 1108.48742 1070.54604 1104.57791 1094.9023 1098.95878 1120.17299 1100.28736 1145.20076 1099.37285 1163.84281 1098.69205 1182.47088 1096.6776 1201.07733 1097.84614 1218.71594 1098.95243 1236.0951 1102.55457 1253.04311 1107.60721 1264.4003 1110.99215 1275.65065 1114.734 1287.2571 1117.09139 1307.91369 1121.28668 1329.19092 1120.02416 1349.9022 1116.08289 1385.57749 1109.29269 1418.72825 1093.23043 1453.64936 1083.15817 1473.06213 1077.55809 1492.85262 1073.15704 1511.08134 1064.53274 1541.57023 1050.10897 1565.52841 1024.83052 1582.18264 995.455849 1590.52439 980.743747 1596.87449 964.633213 1608.86884 952.803073 1616.50219 945.274917 1626 940 1626 940"/>
        <path d="M928,1140 C928,1140 950.067976,1116.96302 975.623046,1098.1437 C998.606336,1081.21839 1024.12454,1067.80907 1051.65643,1060.38431 C1076.26059,1053.74892 1101.85507,1052.66718 1127.34531,1051.58671 C1156.59723,1050.34734 1185.86441,1049.21983 1215.12523,1050.00794 C1239.71286,1050.66894 1264.2916,1053.10191 1288.80931,1051.32358 C1311.43537,1049.68126 1333.65336,1044.76319 1355.9972,1040.754 C1382.70531,1035.96178 1409.70073,1032.9784 1436.51563,1028.82175 C1450.02923,1026.7269 1463.57334,1024.55578 1476.58606,1020.36482 C1490.99463,1015.72513 1504.73071,1009.02873 1516.29163,999.265061 C1532.06555,985.94345 1542.97432,968.082577 1554.96113,951.191588 C1570.03457,929.948194 1586.8967,909.997557 1600.23868,887.646995 C1608.76,873.373296 1615.57655,858.164033 1623.0478,843.30942 C1635.87238,817.810229 1650,793 1650,793"/>
        <path d="M886,1139 C886,1139 900.664348,1118.93316 918.330506,1101.62645 C939.396595,1080.98903 964.249288,1064.81585 989.029481,1048.76467 C1009.94675,1035.21565 1031.21254,1021.59927 1055.4725,1016.30395 C1075.40401,1011.95408 1095.99438,1013.61371 1116.4245,1014.42192 C1133.87824,1015.11196 1151.34343,1015.35213 1168.80098,1015.94813 C1181.42385,1016.37892 1194.04417,1017.06387 1206.67339,1016.96983 C1236.90263,1016.7449 1266.98432,1012.66825 1296.18837,1004.84281 C1320.2232,998.40251 1343.53428,989.546466 1367.48898,982.808806 C1387.52478,977.172911 1407.97779,973.128028 1428.00342,967.45528 C1446.63626,962.177743 1464.90151,955.529038 1481.78415,946.064291 C1496.66982,937.719099 1510.27717,927.307624 1522.62784,915.526251 C1536.14997,902.627865 1548.06944,888.174048 1558.87469,872.924725 C1573.50978,852.272058 1586.04233,830.236786 1598.03558,807.939734 C1608.60551,788.285897 1618.99228,768.455423 1626.41286,747.418982 C1632.58183,729.929279 1636.57195,711.787667 1641.12045,693.797278 C1644.06884,682.1379 1647.51329,670.47598 1654.73671,660.921008 C1663.67091,649.102782 1677.89898,641.049869 1680.64767,652.619022 C1680.87662,653.583542 1681,654.569665 1681,654.569665"/>
        <path d="M854,1124 C854,1124 875.032702,1102.01116 897.149223,1081.13513 C908.500063,1070.42304 920.105322,1059.95005 932.766413,1050.83276 C946.297612,1041.08848 960.823584,1032.84617 975.462772,1024.85057 C995.643175,1013.82818 1016.08181,1003.3005 1036.95423,993.654154 C1053.68855,985.921816 1070.8859,978.731251 1089.21669,977.634988 C1106.82493,976.583238 1124.04391,981.676661 1141.38502,985.154941 C1154.49261,987.783681 1167.71724,989.824866 1181.04999,990.871529 C1198.49795,992.242493 1216.04513,992.406551 1233.35316,989.826138 C1245.50414,988.013871 1257.42233,984.88787 1268.66505,979.948331 C1284.00388,973.207971 1297.75388,963.375947 1312.65258,955.693209 C1323.34448,950.180103 1334.56429,945.782336 1346.06015,942.239196 C1358.90824,938.280188 1372.10615,935.590403 1385.12979,932.243114 C1401.28276,928.09207 1417.2411,923.181781 1432.67789,916.866191 C1449.16797,910.119472 1465.15684,902.070465 1479.28465,891.227387 C1494.00906,879.927746 1506.47553,866.062952 1519.19513,852.518644 C1532.2582,838.609339 1545.51209,824.881896 1557.84753,810.326533 C1570.79865,795.044992 1582.71812,778.82616 1591.39503,760.796333 C1597.82543,747.43643 1602.02968,733.169759 1606.0215,718.882739 C1609.81486,705.310451 1613.24823,691.638966 1616.33431,677.889904 C1618.90139,666.447824 1621.0703,654.917993 1623.92741,643.547133 C1627.70932,628.493238 1632.4822,613.707686 1636.33917,598.672868 C1641.88929,577.042671 1645.6941,555.011867 1649.33355,532.974705 C1652.26952,515.201775 1655.20296,497.430116 1658.12367,479.654642 C1660.11322,467.539798 1662.23633,455.437672 1663.3774,443.214729 C1665.3326,422.297993 1664.74871,401.259167 1664.75634,380.243233 C1664.76524,356.044068 1665.69641,331.824555 1663.85825,307.70424 C1662.18291,285.731938 1658.29668,264 1658.29668,264"/>
        <path d="M1600.58693,264.478901 C1600.58693,264.478901 1605.64562,279.846458 1608.39681,295.727792 C1611.48619,313.563773 1611.68833,331.771097 1609.72791,349.773674 C1607.90607,366.491805 1604.18103,382.926342 1599.32067,399.030229 C1594.02551,416.571168 1587.62173,433.801806 1579.04395,449.987084 C1574.26877,458.997274 1568.87572,467.65774 1563.3835,476.253347 C1553.32715,491.989705 1543.26952,507.724791 1533.10129,523.38866 C1525.81011,534.623102 1518.41596,545.87662 1513.55051,558.33828 C1509.96531,567.51761 1507.78241,577.206903 1507.56374,587.056433 C1507.34761,596.799139 1508.95205,606.459182 1510.77516,616.044193 C1512.3262,624.192152 1513.94463,632.327394 1515.43338,640.486799 C1516.92467,648.656377 1518.16423,656.886998 1518.20746,665.186293 C1518.24432,672.202414 1517.40269,679.221079 1515.22488,685.884932 C1513.23649,691.968877 1510.14203,697.612804 1506.44622,702.84342 C1500.3018,711.542037 1492.68389,719.153327 1483.73488,724.923156 C1478.0367,728.597177 1471.92788,731.561574 1465.95382,734.772686 C1454.85242,740.738361 1444.36762,747.917263 1435.92715,757.250472 C1425.85935,768.383176 1419.28776,782.196682 1409.68655,793.743969 C1404.61514,799.844446 1398.73898,805.209865 1393.22514,810.914836 C1388.03423,816.285341 1383.03275,821.89366 1376.80315,825.97845 C1366.73409,832.579988 1354.44525,834.385841 1342.36364,834.217973 C1330.53502,834.05392 1318.82083,831.768626 1308.05506,826.894094 C1295.92641,821.401502 1285.47721,812.896187 1274.13425,805.89024 C1269.14167,802.8063 1263.96856,799.944913 1258.33395,798.329819 C1255.47215,797.509555 1252.52008,797.041559 1249.54386,797.061906 C1245.27849,797.092428 1241.08432,798.069115 1237.05542,799.487091 C1232.54977,801.071664 1228.2755,803.233601 1224.2644,805.830469 C1217.59237,810.150527 1211.68823,815.540109 1205.18402,820.114513 C1195.68197,826.79617 1185.08784,831.698681 1174.46446,836.41679 C1166.72069,839.856813 1158.93496,843.216718 1150.92039,845.96365 C1145.28069,847.896676 1139.55709,849.568997 1133.80933,851.156114 C1124.33779,853.770786 1114.81667,856.246839 1105.64899,859.772068 C1093.01434,864.63134 1081.27981,871.494854 1069.27575,877.769558 C1059.04141,883.119716 1048.61764,888.09853 1038.0769,892.815368 C1029.05923,896.849288 1019.95003,900.684818 1010.61453,903.90992 C999.196563,907.854819 987.489999,910.884074 975.876244,914.218544 C963.476797,917.779381 951.184142,921.717922 938.699515,924.968458 C925.815684,928.323275 912.714453,930.927774 900.229825,935.532699 C892.620813,938.339402 885.311839,941.895153 878.38427,946.116017 C867.538408,952.725185 857.70581,960.826091 847.913896,968.925724 C838.120709,977.027901 828.355493,985.164414 818.770808,993.512035 C803.82231,1006.53453 789.162407,1019.88894 773.836319,1032.45997 C757.639358,1045.7457 740.637634,1058.05857 722.255228,1068.07343 C708.911169,1075.34262 694.892026,1081.3172 680.377057,1085.80512 C666.238407,1090.17732 651.636986,1092.91663 636.85122,1093 C614.156405,1093.12265 591.555669,1087.37698 572.606242,1074.91532 C565.97871,1070.55711 559.935997,1065.35956 555.312108,1058.9208 C548.190022,1049.00133 544.531085,1037.06108 543.155488,1024.897 C541.754463,1012.51419 542.833837,1000.04236 544.560326,987.683707 C546.922489,970.776088 550.177137,954.010902 553.155904,937.199934 C555.957952,921.380914 558.481576,905.508481 561.962524,889.82808 C566.988159,867.181154 573.529239,844.905572 580.215253,822.68849 C584.471723,808.545607 588.79176,794.378561 591.016618,779.786758 C591.855707,774.285264 592.257452,768.729086 591.870963,763.18181 C591.070014,751.700653 586.952121,740.616275 579.691458,731.71291 C571.737912,721.957487 560.522088,715.715847 549.738523,709.124483 C538.694331,702.374153 527.913308,695.099871 518.771052,685.951062 C510.931926,678.105774 504.49891,668.964596 500.028854,658.817481 C493.956901,645.030681 491.646863,629.969611 490.299236,614.935247 C489.226219,602.965746 488.730393,590.945376 487.115783,579.039462 C485.419806,566.542195 482.364759,554.164469 475.988954,543.320448 C469.952598,533.051247 461.217173,524.723974 451.519338,517.781613 C440.159852,509.647643 427.565888,503.465775 415.439781,496.510697 C407.291717,491.838369 399.386482,486.760361 391.663049,481.416561 C382.827187,475.303366 374.315519,468.731078 366.386127,461.484774 C358.808899,454.560217 351.859716,446.985807 344.681691,439.646667 C340.565069,435.437248 336.445905,431.22783 332.69416,426.692849 C323.597672,415.69622 316.853176,402.958596 311.872038,389.574934 C309.342058,382.771191 307.348586,375.785591 305.867466,368.679177 C303.636252,357.976317 302.474241,347.08397 301.75593,336.172547 C300.957524,324.060613 300.778264,311.915614 301.281718,299.787147 C301.848739,286.123705 303.262476,272.511132 305.399611,259.002841 C308.57035,238.956599 313.238736,219.167245 319.425111,199.838256 C323.138716,188.236285 327.392643,176.816171 332.0623,165.563924 C337.066322,153.506675 342.435221,141.594402 348.610153,130.094169 C351.799963,124.151385 355.188103,118.317971 358.822884,112.638435 C363.917171,104.678692 369.433546,97 369.433546,97"/>
        <path d="M379.68196,100 C379.68196,100 372.921573,107.861892 367.191074,116.470416 C360.386186,126.693038 355.150287,137.845453 349.96779,148.987691 C342.928952,164.122565 336.073205,179.350291 330.356691,195.029557 C325.525119,208.279409 321.592473,221.837071 318.356591,235.565174 C313.57842,255.825986 310.571402,276.458206 309.46777,297.241788 C308.353965,318.207258 309.174061,339.261764 312.523103,359.981749 C314.097179,369.718488 316.365475,379.329305 319.842936,388.55345 C326.996206,407.528326 338.73947,424.377782 352.314917,439.465594 C361.806414,450.013834 372.320169,459.56487 383.586633,468.191201 C400.125869,480.853414 417.878083,491.881177 436.433864,501.348264 C448.366576,507.435793 460.929936,512.739804 470.641397,521.910527 C476.047672,527.017387 480.324885,533.150706 483.916778,539.675784 C492.143166,554.618594 497.794834,571.04322 498.936611,588.070748 C499.218876,592.278343 499.367638,596.489753 499.535471,600.704978 C500.20172,617.390353 503.714782,633.970157 511.539386,648.663666 C515.950103,656.949116 521.814106,664.34802 528.318928,671.11604 C533.759533,676.778739 539.683295,681.998801 546.400452,686.05249 C557.97334,693.034196 571.467413,696.135198 583.106417,703.012605 C589.100109,706.554972 594.473327,711.022043 599.776613,715.543808 C603.739774,718.923366 607.696577,722.37924 610.474732,726.772538 C613.134639,730.978861 614.596826,735.803348 615.504653,740.705424 C616.173444,744.315204 616.496397,747.975862 616.567599,751.645424 C616.792648,763.315519 614.680743,774.886403 611.594893,786.150748 C607.254107,801.99664 600.667911,817.109891 595.430741,832.689945 C585.945601,860.90423 581.513269,890.456601 575.425488,919.619757 C569.043998,950.183324 560.425999,981.106852 567.265217,1011.34099 C568.970253,1018.87726 571.703906,1026.13752 575.611122,1032.79615 C581.889623,1043.49957 591.063254,1052.22639 602.145355,1057.7568 C634.740668,1074.02371 671.236841,1055.29305 704.60012,1038.19174 C728.234138,1026.07647 751.732109,1013.6343 773.094016,997.878719 C795.371379,981.446461 815.319416,962.112896 835.141578,942.767884 C845.535816,932.624123 856.008885,922.429483 868.583688,915.230274 C882.97033,906.993158 899.372247,903.336316 915.767807,900.681767 C945.017892,895.947588 974.883367,894.802837 1003.34514,886.67638 C1026.40192,880.092793 1047.95581,869.314331 1069.42071,858.562579 C1083.78574,851.367186 1098.17238,844.215039 1112.55139,837.045085 C1133.481,826.610048 1154.57336,816.294574 1173.21814,802.207783 C1187.20809,791.637919 1199.64049,779.105445 1214.0551,769.133396 C1227.9268,759.536571 1243.55567,752.122403 1260.35174,751.595818 C1269.24183,751.31599 1278.08997,752.921184 1286.26677,756.433025 C1291.88156,758.844633 1297.17086,761.987609 1301.83206,765.943358 C1311.44307,774.100341 1318.42088,785.285826 1329.72295,790.658522 C1334.69311,793.020524 1340.16423,794.048255 1345.63408,794.713482 C1351.36076,795.410508 1357.20442,795.527527 1362.53822,793.409739 C1376.76466,787.761031 1378.52946,769.780816 1382.9834,754.523835 C1385.41572,746.191323 1388.6872,738.103025 1393.08012,730.620172 C1399.18697,720.213118 1407.47693,711.351477 1416.08095,702.871419 C1426.80831,692.299012 1438.35449,682.061127 1444.19053,668.251619 C1449.88924,654.769002 1449.50271,639.780402 1450.41181,625.086893 C1451.0717,614.420362 1452.61781,603.832691 1454.97638,593.411646 C1459.51932,573.342897 1467.19135,553.9292 1479.78904,537.711901 C1488.16419,526.930894 1498.47833,517.883549 1508.1135,508.195144 C1522.13905,494.094361 1534.53839,478.495228 1546.65673,462.718021 C1555.12851,451.686442 1563.3371,440.44372 1570.28821,428.403488 C1579.52287,412.407508 1586.51975,395.153573 1590.35195,377.090682 C1592.34942,367.671929 1593.40728,358.092911 1594.46896,348.520252 C1596.04939,334.26938 1597.88793,319.958727 1596.52238,305.705311 C1594.56432,285.271514 1586.06838,266.157996 1586.06838,266.157996"/>
        <path d="M389.616897,101 C389.616897,101 385.190588,105.337191 381.494365,110.279453 C375.247928,118.632232 371.311311,128.416335 366.366056,137.616976 C361.238915,147.155746 355.115854,156.141562 350.544545,165.95363 C345.933807,175.847052 342.972759,186.397664 339.851448,196.863107 C335.871586,210.20391 331.759443,223.506578 328.376115,237.010089 C324.517086,252.41271 321.561126,268.04414 320.150558,283.858616 C319.160998,294.954554 318.97784,306.100067 319,317.243038 C319.032533,330.8457 319.346699,344.467428 321.258407,357.930262 C323.006036,370.232529 326.080285,382.339038 331.152734,393.675225 C336.142506,404.828365 342.966399,415.025594 350.438975,424.702919 C358.599664,435.271327 367.468817,445.316017 377.63788,453.964976 C385.629403,460.7644 394.301407,466.707063 403.260866,472.176856 C415.334005,479.548301 427.79381,486.260015 440.449492,492.582755 C445.304441,495.009396 450.158118,497.434765 454.964733,499.9542 C464.731867,505.074424 474.236983,510.788279 482.29083,518.299552 C489.550995,525.069739 495.511248,533.131423 500.010057,541.98631 C502.112554,546.123929 503.881805,550.4179 505.286014,554.84153 C508.13386,563.807007 509.816621,573.087732 511.504469,582.346846 C514.960297,601.2871 518.329634,620.489212 527.118655,637.565948 C532.067726,647.180987 538.736444,655.832489 547.386825,662.302683 C559.906411,671.668575 575.267483,676.037544 590.531889,679.702293 C601.382706,682.308167 612.459925,684.586082 622.008287,690.288496 C629.157794,694.557045 635.022653,700.690382 638.486112,708.246145 C643.176982,718.477696 642.948035,730.093537 641.59852,741.32676 C640.08747,753.898512 636.986509,766.204593 633.179629,778.286949 C626.631745,799.06784 618.206495,819.208067 611.511067,839.943195 C604.395903,861.977448 599.28784,884.62694 597.177712,907.675577 C595.55982,925.352299 595.793855,943.157409 598.191439,960.740066 C599.156832,967.816603 600.526698,974.82831 601.994503,981.817137 C603.364369,988.339448 604.899586,994.901166 608.420282,1000.53367 C612.677425,1007.34834 619.501318,1012.09866 627.213016,1014.3931 C636.093616,1017.03584 645.517329,1016.08756 654.562008,1013.93421 C671.123781,1009.99108 686.33095,1001.9383 702.107943,995.484627 C720.4148,987.996235 739.52806,982.451444 757.020883,973.255888 C774.618005,964.0044 790.31741,951.566119 804.579537,937.685074 C817.716007,924.899767 829.678489,910.972961 842.853117,898.224517 C849.983545,891.324672 857.64691,884.958713 866.505887,880.533812 C884.089018,871.751381 904.404249,871.706891 924.153472,872.301793 C940.607131,872.798816 957.064605,873.984806 973.486465,872.947541 C994.934984,871.593758 1015.94342,866.388366 1035.71935,857.964402 C1049.62788,852.039535 1062.8394,844.63504 1075.98095,837.153004 C1087.78063,830.436205 1099.57522,823.710508 1111.24007,816.762359 C1136.40134,801.777949 1161.4367,786.264737 1182.78092,766.24527 C1190.46463,759.037804 1197.71844,751.363823 1206.01395,744.882189 C1217.64192,735.795952 1231.17269,729.60287 1244.78613,723.857236 C1260.66996,717.153149 1276.82217,711.063031 1293.34452,706.14365 C1303.64459,703.076346 1314.10111,700.4031 1323.74741,695.697274 C1334.73305,690.3368 1344.17839,682.404775 1352.9407,673.862593 C1368.74822,658.451074 1382.25863,640.864603 1394.04304,622.190022 C1400.74483,611.569497 1406.8946,600.614657 1412.81924,589.540329 C1422.71866,571.041167 1432.18943,552.178454 1445.62226,536.102119 C1458.23343,521.007118 1473.97099,508.9451 1488.35777,495.500063 C1501.91779,482.827889 1514.2593,468.939217 1526.51814,454.998427 C1540.02475,439.637754 1553.54152,424.152508 1563.57067,406.353754 C1569.50549,395.823482 1574.13531,384.615682 1577.50592,373.007467 C1580.66411,362.135253 1582.717,350.983384 1584.20389,339.757788 C1585.73402,328.202962 1586.66761,316.536274 1585.42112,304.958567 C1583.18762,284.2031 1574.08697,264.929803 1574.08697,264.929803"/>
        <path d="M399.310723,102 C399.310723,102 392.273896,113.06184 385.336232,124.185967 C379.877129,132.936795 374.524817,141.753724 369.415331,150.711755 C365.682697,157.255808 362.170005,163.923166 359.045069,170.777388 C352.087064,186.036676 347.31448,202.174351 343.158493,218.427705 C336.036486,246.278066 331.23212,274.681392 329.590829,303.374548 C328.215247,327.425341 328.873797,351.748168 335.558465,374.855743 C338.607122,385.393855 342.844474,395.55951 348.601069,404.896353 C355.546361,416.164125 364.333813,426.146729 373.647598,435.567471 C385.645166,447.702189 398.375022,459.159367 412.667346,468.473329 C421.181462,474.020774 430.127831,478.863984 439.367879,483.10211 C451.273911,488.561843 463.528288,493.257596 475.055463,499.466056 C486.658918,505.716466 497.521186,513.540601 505.127571,524.261763 C512.164398,534.179538 515.921187,545.918918 518.996541,557.721858 C523.06862,573.347246 526.105834,589.243397 531.154297,604.575142 C534.841162,615.772998 539.656971,626.735686 547.859611,635.143294 C556.129631,643.622088 567.068179,648.75767 578.342359,652.517831 C590.522999,656.580534 603.111737,659.23985 615.732258,661.647472 C624.62396,663.34323 633.585586,665.023735 641.734829,668.916099 C648.657237,672.222448 654.651571,677.168623 659.230912,683.318609 C666.093567,692.537233 669.294783,703.913055 669.776618,715.418537 C670.224127,726.073598 668.210336,736.629506 665.240502,746.885416 C660.063635,764.756986 652.223325,781.704405 645.406439,799.028095 C642.099702,807.429347 639.133682,815.958989 636.444813,824.576343 C630.399625,843.942825 626.172444,863.872441 625.220215,884.119853 C624.612518,897.043977 625.527878,910.025303 628.923608,922.494343 C631.636632,932.454066 636.044343,942.097265 644.095694,948.441742 C654.481212,956.625622 668.426463,957.207824 681.794528,956.95613 C708.27512,956.457826 734.875217,952.687496 758.805516,941.437521 C770.609841,935.887533 781.589072,928.674838 790.788436,919.426977 C802.803803,907.34692 811.607783,892.537631 822.702705,879.586812 C831.036292,869.859716 840.692065,861.267786 851.949718,855.201698 C864.462176,848.45934 878.533288,845.158076 892.751874,845.243245 C907.434498,845.329686 921.795473,848.922051 936.270869,851.516536 C957.20845,855.26907 978.590998,856.766525 999.559091,853.37882 C1019.90677,850.09154 1039.11407,842.128846 1057.33863,832.447512 C1076.03739,822.511941 1093.68476,810.749679 1111.03973,798.607333 C1123.99588,789.542523 1136.78295,780.232375 1149.003,770.198923 C1167.17543,755.280312 1184.03839,738.8134 1202.47526,724.226568 C1217.2723,712.517696 1232.91351,701.838483 1249.80062,693.427061 C1257.38667,689.649104 1265.15578,686.255043 1272.71767,682.430052 C1284.73304,676.353794 1295.97797,668.89576 1307.19367,661.438997 C1319.30948,653.384778 1331.32484,645.128441 1342.0765,635.337785 C1352.92606,625.455604 1362.22077,614.027663 1370.53402,601.928538 C1382.75661,584.140866 1392.55732,564.769299 1405.24013,547.310864 C1417.48816,530.448614 1431.89871,515.200767 1448.42858,502.495287 C1454.16611,498.08428 1460.05365,493.880476 1465.8077,489.489807 C1482.37317,476.847887 1496.67567,461.563175 1511.24005,446.648378 C1526.9906,430.51833 1542.75258,414.184892 1553.51569,394.440868 C1563.00873,377.026924 1568.08389,357.632477 1571.5381,338.077859 C1573.2455,328.414322 1574.43165,318.646547 1573.85066,308.859705 C1572.31361,282.92756 1558.80189,259.486934 1558.80189,259.486934"/>
        <path d="M408.388042,103 C408.388042,103 396.085226,120.359725 385.195167,138.612789 C377.719379,151.144932 370.93916,164.087528 365.323735,177.553673 C359.717212,190.996945 355.341606,204.907853 351.433951,218.940753 C346.652702,236.114949 342.644591,253.505173 340.101373,271.147005 C337.04824,292.329148 336.155571,313.780691 337.842996,335.110242 C338.991258,349.64763 341.384426,364.071921 345.588365,378.031118 C349.251871,390.194744 354.249293,401.950458 361.192278,412.58283 C369.44502,425.220445 380.221905,435.944311 391.918164,445.511793 C408.03835,458.697102 425.796368,469.766612 444.857785,478.158649 C457.020724,483.512322 469.621097,487.826521 481.593294,493.584292 C493.585838,499.35223 505.01633,506.558657 513.396233,516.851738 C519.278696,524.075955 523.389807,532.51374 526.665472,541.248881 C532.643305,557.191719 536.067748,573.993585 542.472842,589.764872 C547.397783,601.892917 554.078816,613.413543 564.155045,621.707733 C574.959906,630.601717 588.577565,635.068406 602.441917,637.358298 C613.901656,639.250446 625.541964,639.852782 636.885987,642.32058 C647.488662,644.626992 657.678064,648.782347 665.996929,655.699043 C675.142341,663.301945 681.094742,673.880945 685.200767,685.067363 C692.287443,704.378962 693.575583,725.380659 689.4632,745.538577 C685.263076,766.133634 675.288576,784.96743 668.545234,804.914404 C664.872827,815.77424 662.246955,826.947951 660.253072,838.239841 C657.624657,853.122874 655.989368,868.415088 660.147529,882.878772 C662.67803,891.67618 667.226575,899.956391 674.660401,905.238902 C679.791343,908.884686 685.86709,910.812415 692.03185,912.174659 C704.193517,914.862297 716.717593,915.735303 729.095434,914.347643 C743.216651,912.764288 757.116608,908.45263 768.000308,899.366763 C778.937416,890.236419 785.858784,877.469187 794.072105,865.752865 C800.920991,855.982063 809.008424,847.131284 818.670108,840.159946 C837.470845,826.594682 860.994338,821.63113 884.179583,822.995916 C905.017438,824.22219 925.036377,830.847885 945.393564,835.615741 C961.28486,839.336499 977.50296,841.844961 993.760479,840.683495 C1010.6182,839.478823 1026.92022,834.350073 1042.01804,826.733194 C1057.77963,818.782107 1071.97841,808.153548 1086.66041,798.328103 C1098.47111,790.425304 1110.64295,783.03716 1121.80895,774.256272 C1134.94086,763.928881 1146.56336,751.864374 1158.73647,740.411098 C1164.94574,734.568186 1171.32413,728.90445 1178.04713,723.662604 C1189.37335,714.832157 1201.6253,707.281356 1213.51357,699.214631 C1236.75222,683.442073 1258.66967,665.83328 1280.97497,648.760744 C1291.74804,640.514843 1302.55671,632.308335 1312.63675,623.236446 C1327.67862,609.699138 1341.00635,594.381509 1352.90479,578.012969 C1364.66336,561.838854 1374.86802,544.49819 1388.25552,529.663446 C1399.48383,517.221526 1412.68949,506.8001 1426.01849,496.616303 C1443.76888,483.054852 1461.7774,469.804734 1478.63385,455.152978 C1496.59024,439.543077 1513.07792,422.312968 1527.26018,403.217397 C1537.86667,388.93543 1547.37576,373.690233 1552.66311,356.733336 C1554.746,350.05427 1556.10408,343.183321 1556.9408,336.236127 C1558.42349,323.907304 1558.56083,311.385326 1555.97946,299.250928 C1551.21983,276.870466 1537.40761,257.721524 1537.40761,257.721524"/>
        <path d="M417.898029,105 C417.898029,105 403.359416,124.062783 391.100174,144.600541 C383.132556,157.950338 376.094748,171.854523 370.588392,186.390658 C365.625167,199.495049 361.974614,213.041934 358.727276,226.677825 C354.276654,245.369321 350.595574,264.23756 348.359452,283.316873 C346.050827,303.003977 344.953117,322.917414 347.329156,342.585446 C348.646917,353.495176 351.137433,364.206548 354.626446,374.629282 C360.036132,390.795519 367.372853,406.337434 377.818267,419.783868 C388.72159,433.820291 402.895147,444.770711 418.19567,453.845623 C434.646052,463.602075 452.358229,470.985852 470.342606,477.49863 C483.895442,482.406737 497.77263,486.79606 509.407336,495.231392 C520.021922,502.927966 527.909406,513.598648 534.058107,525.192462 C538.156393,532.922095 541.178592,541.152711 544.137194,549.384598 C548.983398,562.865363 553.057516,576.794978 561.434708,588.37099 C567.70679,597.039013 576.006391,603.957409 585.661912,608.551449 C595.660865,613.308244 606.649411,615.507991 617.655763,616.830383 C632.44877,618.606711 647.707317,618.34859 661.328839,624.224332 C668.088085,627.139951 674.066342,631.522916 679.123693,636.874787 C684.908611,642.997206 689.345241,650.225856 693.365937,657.633792 C700.141719,670.11259 705.570485,683.316162 708.943748,697.105908 C712.172007,710.306936 713.025498,723.908496 714.12448,737.464281 C715.288332,751.810958 716.46872,766.207225 714.348347,780.408947 C713.22647,787.921149 710.964908,795.207018 709.134544,802.580622 C707.580197,808.844181 706.088176,815.186574 706.388361,821.624332 C706.608412,826.362054 707.768448,830.989153 709.731097,835.309813 C711.70901,839.662262 714.399226,843.717172 718.185879,846.613718 C721.307292,849.001652 725.020172,850.544018 728.934022,850.914034 C732.863136,851.285321 736.757907,850.424495 740.409732,848.89993 C751.276168,844.363109 759.255233,835.129256 768.567322,827.834486 C781.495621,817.706747 796.674034,810.860828 812.408298,806.09386 C837.903656,798.371857 864.922834,796.122519 890.952419,801.825333 C912.475416,806.541439 932.444067,816.60433 953.935265,821.53914 C964.712663,824.013538 975.744455,825.028219 986.808047,824.992616 C998.371522,824.955742 1009.95408,823.942332 1021.00113,820.56769 C1031.79252,817.271884 1041.72788,811.775058 1051.35796,805.871343 C1064.10437,798.055246 1076.27584,789.354163 1088.53127,780.78532 C1100.28681,772.566148 1112.16701,764.472858 1122.95713,755.030473 C1135.0243,744.470414 1145.56639,732.273895 1157.8816,722.010102 C1165.63934,715.545641 1174.11829,710.009398 1182.13551,703.865364 C1192.26548,696.102671 1201.76709,687.563073 1211.83727,679.721545 C1217.60947,675.226685 1223.6119,671.03445 1229.4108,666.573921 C1240.04065,658.397981 1250.22531,649.665111 1260.34765,640.866121 C1268.2822,633.968069 1276.2638,627.124692 1284.06479,620.0766 C1290.72355,614.06099 1297.30091,607.953829 1303.44198,601.413077 C1314.38855,589.755687 1323.93214,576.891614 1333.57367,564.126721 C1339.44762,556.350042 1345.2071,548.489441 1350.90425,540.583065 C1356.28214,533.119182 1361.49213,525.505258 1367.79601,518.810651 C1378.41187,507.53472 1391.34271,498.833638 1403.74187,489.514592 C1412.19156,483.163298 1420.43265,476.536082 1429.12529,470.524286 C1439.94721,463.040059 1451.42038,456.500578 1461.75131,448.360241 C1473.3415,439.226838 1483.45239,428.412473 1493.66884,417.749419 C1499.4474,411.719822 1505.26794,405.716927 1510.30112,399.056651 C1515.89015,391.658888 1520.4985,383.585942 1525.06487,375.510452 C1529.3247,367.975364 1533.85291,360.534368 1537.00485,352.474137 C1538.68894,348.168735 1540.03086,343.739995 1540.78641,339.176473 C1542.72744,327.464407 1542.35984,315.425557 1539.54116,303.873704 C1533.03376,277.208441 1514.84459,255.42204 1514.84459,255.42204"/>
        <path d="M428.219483,106 C428.219483,106 422.521536,112.543986 417.301704,119.466561 C409.48022,129.839624 402.808244,141.013059 396.455435,152.347838 C389.432503,164.880632 382.897857,177.690381 377.670395,191.066741 C371.746108,206.228056 367.609661,222.011882 364.306098,237.953241 C360.558754,256.040357 358.013053,274.351069 356.399419,292.750711 C354.920572,309.614402 354.256808,326.580999 356.220126,343.38371 C357.885895,357.640478 361.415799,371.635538 367.137905,384.797196 C371.991523,395.964278 378.365949,406.412297 386.16073,415.769016 C395.489034,426.967859 406.648413,436.469407 418.672466,444.725934 C431.036031,453.21749 444.238837,460.519923 458.472895,465.23449 C472.97907,470.037987 488.253279,472.121492 502.68316,477.143503 C510.711911,479.937179 518.385891,483.71925 524.984115,489.06268 C535.021961,497.189623 541.982586,508.347812 547.997155,519.817256 C553.716719,530.7239 558.659347,542.012944 563.766009,553.22195 C567.023795,560.374473 570.468503,567.502857 575.634929,573.401465 C581.418071,580.002621 589.116211,584.513919 597.340786,587.609957 C611.52398,592.947035 626.889743,593.751217 642.076213,594.05358 C652.590901,594.26193 663.372621,594.057391 672.847157,598.48484 C679.235571,601.471622 684.493551,606.319584 688.863969,611.873905 C693.96173,618.351829 697.898539,625.633936 701.656055,632.977023 C706.886061,643.197634 711.857935,653.559264 715.876125,664.313456 C721.84619,680.295469 726.17846,696.819956 730.995202,713.191991 C734.87479,726.382868 739.163827,739.503872 745.500106,751.69238 C748.488317,757.441077 752.150465,762.806105 757.006626,767.069669 C770.657028,779.052367 790.277495,779.373786 808.641642,780.575613 C828.474462,781.872722 848.293295,783.751689 868.160448,783.343881 C875.547052,783.192699 882.947643,782.847142 890.254137,783.887625 C903.463301,785.769132 915.494983,792.114931 927.959003,796.970516 C940.756176,801.954414 954.026376,805.614523 967.515288,808.208742 C979.816545,810.574283 992.356859,812.017492 1004.71788,810.137255 C1018.40007,808.05629 1031.09806,802.103054 1043.05345,795.078845 C1054.75198,788.204547 1065.75114,780.231326 1076.48454,771.925253 C1094.13151,758.270668 1111.18339,743.869071 1128.2696,729.51702 C1143.51456,716.711083 1158.80276,703.953422 1174.39359,691.570538 C1195.53614,674.77799 1217.38823,658.846794 1237.42069,640.754597 C1252.00316,627.585316 1265.58108,613.343793 1277.89887,598.036378 C1292.1876,580.280845 1304.8182,561.279019 1317.36105,542.244162 C1325.76492,529.491583 1334.1726,516.622124 1345.2684,506.15886 C1356.14168,495.906488 1369.1601,488.342346 1381.95473,480.572394 C1396.78643,471.565044 1411.32185,462.083823 1425.84965,452.594979 C1439.80777,443.477101 1453.63238,434.106407 1465.79376,422.728433 C1479.11737,410.261701 1490.0733,395.541225 1500.39598,380.484085 C1508.31537,368.932063 1515.63331,356.871868 1518.95722,343.316377 C1524.12873,322.220882 1519.07166,300.106502 1508.40057,281.109758 C1499.38126,265.05406 1486.38317,251.685322 1486.38317,251.685322"/>
        <path d="M438.762825,107.80784 C433.306109,114.641664 426.810684,120.596163 421.411179,127.475732 C413.383754,137.702324 407.680393,149.452486 401.786325,161.066682 C397.098787,170.303399 392.092136,179.386362 388.005955,188.902633 C381.396107,204.299703 377.08998,220.550683 373.940798,237.017682 C371.483242,249.865728 369.705868,262.829408 368.340417,275.838833 C366.194346,296.290747 365.015787,316.883708 367.060149,337.33181 C368.787939,354.604433 372.786395,371.626728 380.114567,387.349097 C384.655897,397.094094 390.420285,406.222802 397.337805,414.453124 C406.384867,425.218493 417.232189,434.329411 429.325452,441.512677 C439.42648,447.512922 450.28143,452.116668 461.501262,455.617446 C474.971418,459.820921 488.867483,462.432209 502.834744,464.475494 C511.758484,465.780503 520.758506,466.870763 529.253795,469.86072 C539.991779,473.641052 549.590616,480.308414 555.847023,489.790376 C559.67003,495.583497 562.072918,502.149203 564.564801,508.639938 C567.73051,516.88678 571.12888,525.059921 575.61427,532.663789 C580.491242,540.930962 586.644669,548.450964 594.548771,553.865416 C602.597809,559.378982 612.055524,562.374022 621.780227,563.287655 C630.833646,564.137753 640.033273,563.174563 648.290816,559.409479 C655.004916,556.348363 660.854486,551.532411 664.226157,544.992119 C669.193396,535.356402 667.760563,524.049715 667.286342,513.105177 C666.790508,501.672691 667.365167,490.223685 667.179547,478.781033 C667.081652,472.817639 666.804493,466.859327 666.679899,460.895933 C666.582004,456.240089 666.60616,451.482588 668.637807,447.323588 C671.835301,440.779484 679.073205,437.698037 686.414091,436.908932 C694.517798,436.038503 702.657103,437.990298 709.61912,442.231894 C714.878774,445.437869 719.298053,449.87007 722.253987,455.269274 C727.31785,464.519969 727.478042,475.497545 724.890806,485.777506 C721.180951,500.516354 711.967339,513.060702 705.132459,526.695312 C700.606384,535.726175 697.088506,545.335208 696.812619,555.405504 C696.485877,567.357707 700.752592,578.791464 705.016764,590.015555 C710.932445,605.58544 717.009589,621.100685 722.223474,636.918357 C725.727367,647.551573 728.84095,658.310589 732.338487,668.945076 C737.026025,683.198516 742.424258,697.211794 748.862471,710.762537 C753.567809,720.6651 758.837634,730.354187 766.069181,738.576885 C771.375876,744.610168 777.651354,749.747608 784.844761,753.315733 C794.317732,758.014781 804.877724,759.760722 815.332193,761.509205 C825.12682,763.147137 834.92272,764.807942 844.806343,765.755884 C857.823892,767.006253 870.926622,767.034208 883.955613,768.166402 C889.525481,768.649268 895.080093,769.344341 900.538081,770.555317 C911.663832,773.024287 922.167884,777.601348 932.76856,781.81753 C946.52096,787.287893 960.53399,792.228374 975.135665,794.579169 C988.853738,796.787645 1002.95576,796.703779 1016.10681,792.302074 C1026.71257,788.750468 1036.16774,782.587574 1045.56952,776.490756 C1056.27953,769.546382 1067.0315,762.651564 1077.18338,754.919356 C1088.42991,746.354839 1098.90091,736.837297 1109.39733,727.36423 C1119.70813,718.058895 1130.07361,708.800576 1141.01882,700.252578 C1156.31212,688.308 1172.72296,677.838704 1187.61196,665.401094 C1194.77867,659.413556 1201.57032,652.996522 1208.39885,646.623962 C1221.49903,634.396018 1234.80391,622.348513 1246.57298,608.843515 C1256.54432,597.402133 1265.34347,585.001374 1273.25774,572.04786 C1280.74611,559.79196 1287.44241,547.077337 1294.2544,534.431332 C1302.44965,519.217243 1310.86357,503.963762 1322.86784,491.579522 C1331.52332,482.651585 1341.7731,475.481026 1352.5988,469.341004 C1362.74052,463.588546 1373.34755,458.721765 1383.98255,453.938851 C1396.60725,448.260094 1409.29933,442.653766 1420.98702,435.254481 C1432.3734,428.045801 1442.61174,419.209354 1452.1254,409.656233 C1463.58806,398.147504 1473.9904,385.543432 1481.43554,371.127343 C1486.62654,361.076107 1490.27791,350.304385 1492.37694,339.188302 C1494.03608,330.400142 1494.69592,321.402317 1493.0406,312.629405 C1490.39488,298.613586 1482.06105,286.602931 1473.06866,275.443645 C1465.46079,266.003616 1457.24011,257.079491 1448.72321,248.448898 C1440.069,239.677257 1431.05499,231.269036 1421.75366,223.186114 C1305.81242,122.425971 1151.81402,84.6112143 1001.3335,49.1434404 C797.976733,1.21391327 566.658746,-52.3714989 441.548395,104.338829 C440.622838,105.497707 439.688382,106.648962 438.762825,107.80784 Z"/>
        <path d="M446.397465,112.539293 C448.551628,110.309467 450.854574,108.233465 453.180409,106.182889 C608.180967,-30.5331983 831.695105,93.4484684 1046.15514,118.449478 C1193.51949,135.629568 1371.53678,110.291669 1400.78457,244.007533 C1401.44455,247.02174 1402.0613,250.055016 1403.22358,252.90777 C1405.2048,257.767877 1408.91418,261.626214 1412.5727,265.409546 C1425.39086,278.665192 1439.19963,291.173324 1448.65175,306.966447 C1456.09722,319.407201 1460.89895,333.448498 1459.85874,347.868637 C1458.85033,361.833658 1452.58113,374.704105 1444.51001,386.210468 C1436.50629,397.621485 1426.77314,407.74978 1415.25078,415.578328 C1404.10483,423.150077 1391.60077,428.418264 1378.64781,432.163458 C1366.08652,435.796779 1353.1412,438.01135 1340.76938,442.22946 C1331.83863,445.274177 1323.2436,449.370244 1316.05373,455.45968 C1308.21405,462.098309 1302.4675,470.758274 1297.35422,479.695378 C1290.90063,490.975453 1285.42367,502.775482 1279.97086,514.575511 C1275.72485,523.76433 1271.48264,532.956962 1267.42992,542.233498 C1262.73628,552.972008 1258.27155,563.83256 1252.40037,573.967211 C1246.29776,584.501044 1238.7531,594.100486 1231.03295,603.521949 C1225.22409,610.610611 1219.29442,617.601384 1213.13585,624.387482 C1201.41257,637.306238 1188.87672,649.477481 1175.31083,660.441007 C1165.70866,668.199634 1155.6169,675.32135 1145.6612,682.623587 C1137.08016,688.91897 1128.60084,695.35038 1120.09609,701.750008 C1111.47436,708.239896 1102.81955,714.682748 1094.1762,721.143397 C1078.5477,732.825197 1062.93447,744.527338 1047.30598,756.210409 C1038.88389,762.505792 1030.3855,768.812616 1020.68032,772.808252 C1008.59208,777.785316 995.335205,778.840479 982.321212,777.417916 C959.230719,774.894424 937.888735,764.523314 915.305628,758.887726 C891.453422,752.93686 866.670372,752.307576 842.381992,748.378047 C831.801923,746.665632 821.328671,744.285794 811.277606,740.583824 C793.961644,734.207079 778.128417,723.956742 767.329625,709.053516 C757.694387,695.754647 752.891391,679.784817 747.970133,664.061615 C743.066678,648.391807 737.982649,632.775393 733.642532,616.94159 C729.944594,603.449486 726.811266,589.713296 727.262699,575.757175 C727.903607,555.986214 735.693692,537.398817 744.181909,519.450874 C752.303892,502.275869 761.471166,484.940683 760.450037,466.12954 C759.880341,455.62876 756.212923,445.473769 749.404546,437.474869 C744.864781,432.143117 739.143659,428.012726 733.287744,424.151846 C721.244013,416.210154 708.378802,409.057928 694.08172,407.719269 C685.43582,406.910735 676.788648,408.287532 668.24575,409.936383 C654.094908,412.667094 639.958053,416.121165 627.582424,423.437386 C625.495658,424.6718 623.445769,426.024443 621.996096,427.956789 C620.364578,430.131951 619.652458,432.842322 619.799969,435.561592 C620.251402,443.851614 628.504365,448.627816 634.276352,454.919385 C639.008136,460.075701 642.241924,466.386339 644.535968,473.009712 C646.870704,479.747501 648.189398,486.820908 647.679469,493.924825 C646.952089,504.049306 642.619602,513.725025 634.680735,519.993711 C631.054009,522.859178 626.811808,524.877972 622.233894,525.46149 C614.893971,526.39461 607.725719,523.559653 601.550621,519.400022 C594.017408,514.323798 588.002537,507.272003 584.488988,498.899347 C580.86099,490.252095 580.110721,480.753084 578.091352,471.574436 C576.808264,465.748156 574.987272,459.960014 571.185059,455.397387 C566.514315,449.793581 559.468141,446.759034 552.167639,446.935742 C545.786535,447.090838 539.78438,449.680437 533.532983,451.071218 C525.989597,452.748038 518.204599,452.60184 510.469195,452.366653 C491.465763,451.792035 472.327537,450.603387 454.440607,444.291477 C443.231074,440.336523 432.820134,434.433966 423.487546,427.069435 C413.828146,419.446835 405.437846,410.327938 398.798598,399.969541 C391.072096,387.915256 385.92067,374.433322 382.717401,360.468302 C378.018681,339.977797 377.620657,318.828768 378.210699,297.791613 C378.767678,277.925307 380.306366,258.089511 383.718184,238.514328 C387.712415,215.594406 394.347848,193.172825 404.664687,172.337803 C412.53107,156.453148 422.720745,141.898254 433.510636,127.830259 C437.570992,122.535375 441.762327,117.335836 446.397465,112.539293 Z"/>
        <path d="M461.317913,111 C461.317913,111 448.228148,121.296798 437.675455,134.010685 C425.294036,148.926667 416.882911,166.608308 409.781653,184.679227 C400.501947,208.294185 393.900473,232.850535 390.246835,257.95391 C385.355818,291.552716 385.603803,325.898276 393.657576,358.843196 C397.045425,372.705836 401.911007,386.194464 409.345455,398.358781 C417.517497,411.730371 428.503845,423.366745 442.483811,430.352132 C458.03816,438.122436 475.80275,439.417487 493.171837,437.661917 C512.753708,435.682449 531.722613,430.07353 550.360871,423.672062 C563.259879,419.241156 576.083856,414.597801 588.870953,409.85013 C612.180221,401.194408 635.595042,392.508154 660.122614,388.640812 C674.158535,386.42854 688.492038,385.989647 702.24691,389.432091 C718.644406,393.536053 733.070744,402.881282 747.83663,411.206244 C757.60849,416.714662 767.596541,421.955929 776.014025,429.34586 C785.658713,437.814575 793.159289,448.850494 794.52384,461.554204 C795.779023,473.236376 791.64722,484.609414 785.863459,494.917662 C778.432827,508.164581 768.59611,519.895094 761.335887,533.231064 C750.357169,553.397217 745.847667,576.466421 747.624253,599.35498 C748.819666,614.760741 753.06338,629.699622 757.460971,644.526553 C761.058653,656.659067 764.77842,668.789036 770.181938,680.221866 C775.796561,692.098677 783.288236,703.076076 793.450512,711.356514 C806.644558,722.106198 823.183215,727.455597 839.936791,730.751743 C855.430098,733.799819 871.212084,735.02999 886.809672,737.511959 C897.883768,739.273889 908.824334,741.750769 919.74964,744.28108 C933.261615,747.410573 946.782491,750.540067 960.074459,754.499004 C971.184163,757.807872 982.32566,761.881302 993.809249,760.831777 C1002.00545,760.083752 1009.66245,756.779973 1017.09436,753.182327 C1028.98362,747.425839 1040.52317,740.974757 1051.71935,733.962655 C1076.5445,718.414413 1099.55619,700.207374 1123.09055,682.74836 C1136.62923,672.703448 1150.31034,662.85063 1163.57052,652.441883 C1179.21516,640.164344 1194.28626,627.105704 1207.39001,612.155373 C1219.65443,598.164246 1230.01891,582.607099 1238.13754,565.863034 C1248.64572,544.191925 1255.265,520.920449 1263.10513,498.127301 C1268.40436,482.718996 1274.41067,467.568938 1280.46022,452.439235 C1285.92478,438.768689 1291.41605,424.920043 1300.64362,413.499934 C1305.878,407.020864 1312.30143,401.494636 1320.17335,398.877819 C1333.38265,394.488895 1347.48089,399.094085 1361.49901,400.082547 C1371.88892,400.815307 1382.41872,399.582591 1391.70224,394.926515 C1402.49529,389.514781 1410.70548,379.929115 1414.21923,368.371614 C1416.41421,361.152152 1416.64058,353.477259 1414.56005,346.227265 C1411.80552,336.63015 1405.43804,328.63213 1398.49702,321.399946 C1389.69548,312.230275 1379.76465,304.243704 1368.99831,297.48985 C1356.36,289.561798 1342.56952,283.128526 1332.76079,271.971753 C1326.22417,264.537296 1321.4972,255.192068 1323.26362,245.555517 C1324.6358,238.068902 1329.6667,231.895148 1329.6667,231.895148"/>
        <path d="M471.862672,112 C471.862672,112 460.291969,122.091109 450.249544,133.639427 C441.797645,143.359241 434.575484,154.068329 428.289599,165.315287 C418.168409,183.424861 410.79253,202.940781 406.576109,223.251427 C401.35354,248.411807 401.265883,274.290619 403.038076,299.94818 C404.018816,314.151518 405.63094,328.302722 407.542875,342.411964 C409.437025,356.387692 411.846953,370.33799 417.408717,383.26468 C423.122926,396.544865 431.817469,408.648855 443.945873,416.435895 C448.979155,419.668204 454.535836,421.883263 460.368192,423.206958 C485.642582,428.944242 511.712236,420.181914 534.445847,407.304815 C543.355086,402.257989 551.917508,396.647861 560.869939,391.6786 C587.099662,377.117953 617.07195,371.320906 646.98072,368.526015 C661.431395,367.175617 675.982431,366.792877 690.327664,368.912569 C709.106555,371.687116 727.027933,378.535744 743.90251,387.28027 C762.000473,396.658033 778.904269,408.44159 798.131607,415.09567 C814.85882,420.883816 832.677296,422.169365 850.366193,421.164831 C864.857521,420.342131 879.895116,418.054593 890.167482,408.019432 C897.354073,400.997872 900.867969,391.233554 901,381.156432 C901.237652,362.10336 889.699979,345.540004 877.711317,330.480906 C855.58114,302.679493 829.610577,278.278235 802.218449,255.621559 C792.822652,247.849777 783.296004,240.239484 773.827795,232.554168 C762.728406,223.543886 751.789086,214.337783 740.772272,205.227048 C731.709316,197.733738 722.617142,190.272217 713.836213,182.450845 C702.743176,172.572086 692.220544,162.075349 681.276142,152.031288 C668.43759,140.249002 655.052772,129.080881 655.052772,129.080881"/>
        <path d="M483.065274,115.185868 C472.749611,122.257411 464.052566,131.313925 456.356189,141.210775 C445.938807,154.603925 436.600926,168.893432 429.807313,184.447261 C423.091261,199.82793 418.784698,216.136786 417.032574,232.844165 C415.791592,244.689062 415.674614,256.617993 416.652396,268.488356 C418.044686,285.391813 421.55402,302.043169 423.382434,318.908429 C424.700978,331.071635 425.293496,343.322694 427.914053,355.260538 C430.020925,364.853084 433.516273,374.068753 437.337124,383.117628 C440.951992,391.675035 445.200067,400.145862 452.685375,405.502358 C464.83708,414.198548 481.07538,411.406345 494.956322,405.213334 C511.63456,397.773827 525.206528,384.977823 540.993446,375.721411 C552.349194,369.062396 564.729769,364.452015 577.281996,360.466792 C596.785502,354.272508 616.767091,349.561542 637.149202,347.95472 C660.936385,346.079246 684.940994,348.316319 707.827956,355.073372 C721.518173,359.114618 734.702335,364.634088 747.892854,370.111541 C756.628044,373.738985 765.45224,377.141067 774.35654,380.322879 C783.751637,383.680398 793.351446,386.574459 803.288202,387.143595 C811.870813,387.635063 820.506827,386.223046 828.171416,382.3626 C836.2645,378.284431 842.64742,371.504459 846.114794,363.136764 C852.398537,347.977638 847.606261,331.000334 839.530978,316.507109 C830.898779,301.013123 818.154556,288.436115 805.004725,276.490632 C787.173238,260.291274 768.486034,245.06594 750.218424,229.361869 C730.634813,212.524621 711.222855,195.482381 692.245749,177.963952 C676.709316,163.622243 661.447527,148.939306 644.686642,136.066909 C627.489633,122.858377 608.568473,112.060078 587.952406,105.4469 C552.77006,94.1609522 513.359983,94.4194188 483.065274,115.185868 Z"/>
        <path d="M493.001306,119.556108 C493.001306,119.556108 484.578942,125.154631 476.853671,131.646577 C468.386784,138.762136 460.833243,146.920022 454.709506,156.127868 C447.480342,166.997837 442.465848,179.135395 438.206964,191.491855 C433.73946,204.451565 430.078447,217.720537 428.661363,231.347132 C427.485972,242.642176 427.820526,254.063215 430.12297,265.180083 C432.167183,275.043361 435.657739,284.523562 438.95494,294.048306 C442.524364,304.354477 445.840646,314.749735 448.71552,325.270988 C451.049765,333.815768 453.138502,342.431819 456.13295,350.762788 C457.974905,355.891693 460.197209,360.889511 463.209466,365.422801 C465.323644,368.605776 467.884317,371.520215 471.270563,373.245971 C476.087886,375.700972 481.729509,375.236444 487.016225,373.931946 C497.793187,371.272042 507.103455,364.825913 516.708843,359.184118 C529.322673,351.773297 542.566176,345.467163 556.430448,340.806605 C569.102793,336.548215 582.178383,333.624866 595.429519,331.84184 C605.884648,330.435528 616.414829,329.699918 626.924658,328.772134 C639.988799,327.619085 653.07711,326.075323 666.136163,327.132921 C677.016164,328.013616 687.669736,330.575523 698.151579,333.654138 C704.35164,335.475344 710.513539,337.426364 716.638547,339.491926 C728.957257,343.645956 741.23526,347.919619 753.435667,352.412183 C762.187497,355.635884 770.99657,358.883766 780.259772,359.769552 C788.733019,360.580249 797.36273,359.310114 804.705109,355.049178 C811.127782,351.321495 816.162628,345.445527 817.589889,338.193791 C819.333894,329.337204 815.245467,320.691882 810.429416,312.936164 C802.60238,300.328987 792.296082,289.541743 781.530568,279.31066 C766.558324,265.08336 750.623124,251.922566 734.797323,238.649776 C711.189007,218.85195 687.422955,199.091033 667.026611,176.012236 C654.022257,161.297499 642.111881,145.36226 625.655134,134.802826 C603.500792,120.586979 576.30906,118.326698 549.844951,117.260191 C535.602874,116.686212 521.187796,116.656941 507.85652,121.556762 C491.471008,127.579089 478.504816,140.10227 468.356255,154.404658 C460.837059,165.002273 454.92703,176.626941 450.413731,188.82177 C446.06453,200.576252 442.83602,212.762172 441.86416,225.253536 C441.041132,235.824424 441.846351,246.46531 444.592747,256.704028 C447.804719,268.676138 453.502313,279.793006 460.471975,290.050815 C466.086885,298.315605 472.503197,306.040779 480.124159,312.489453 C485.310381,316.877657 491.065218,320.651156 497.636723,322.284006 C506.840137,324.571014 516.389554,322.458363 525.791411,320.838241 C538.580786,318.63523 551.483375,317.148738 564.270205,314.934273 C580.674798,312.09365 596.916566,308.381239 613.349145,305.7137 C634.889078,302.218918 656.920029,300.166083 678.157209,304.929728 C690.977113,307.805987 703.115189,313.158884 715.965623,315.890057 C722.857689,317.35364 729.907492,317.852531 736.875882,318.905038 C744.256423,320.019907 751.62933,321.85384 759.020047,320.998598 C762.029761,320.649884 764.986048,319.748826 767.002276,317.524179 C770.903709,313.217427 768.886209,306.740753 766.253028,301.33695 C760.630486,289.795006 750.653654,281.293497 741.127134,272.602359 C727.839109,260.4788 715.058639,247.816897 702.554207,234.880095 C691.980775,223.942674 681.319571,213.089251 670.995464,201.915112 C653.635548,183.121432 636.663613,163.979037 619.573375,144.938457 C614.875627,139.705193 609.948906,134.679376 603.975273,131.014055 C587.666086,121.008237 567.229036,123.922676 547.89487,124.687558 C543.136062,124.875914 538.383615,125.107542 533.66297,125.718429 C520.380032,127.437821 507.546135,132.0182 496.467692,139.516836 C484.662898,147.505455 475.580331,158.792862 468.979568,171.454765 C462.913074,183.095978 459.077788,195.746427 457.224385,208.746863 C455.201796,222.935984 455.507093,237.492909 460.15523,251.018962 C463.783169,261.575851 469.94634,271.106959 478.445029,278.326878 C487.364771,285.903148 498.308375,290.591704 509.781159,292.979254 C523.200208,295.770243 537.017414,295.390984 550.623456,293.583777 C565.684745,291.58185 580.495437,288.032343 594.990655,283.462146 C603.540226,280.76788 611.972767,277.699446 620.598662,275.262262 C628.528736,273.019798 636.657252,271.353859 644.109029,267.860349 C647.85527,266.10405 651.352186,263.874313 654.714262,261.460037 C657.604401,259.384294 660.427121,257.102377 661.962507,253.915584 C663.916404,249.862095 663.305811,245.182447 662.318686,240.750972 C660.08239,230.701883 655.495312,221.39604 650.80774,212.218737 C641.959233,194.897549 632.360206,177.875441 619.825245,163.035981 C611.798494,153.532872 602.600168,145.054271 592.137406,138.338334 C579.278067,130.082452 564.835004,124.70792 564.835004,124.70792"/>
        <path d="M518.817395,141.420048 C508.61131,145.311705 499.555387,151.64501 492.265508,159.766064 C483.612523,169.40696 477.410325,181.048916 474.491568,193.65712 C472.242251,203.371658 471.616166,213.393466 472.212923,223.361946 C472.698745,231.477922 473.88716,239.605325 477.841316,246.694107 C485.23958,259.954941 499.584715,267.480502 514.601839,270.833802 C530.732145,274.434695 547.375051,273.256406 563.515558,269.430774 C574.736641,266.772005 585.656795,262.96542 595.616781,257.192056 C605.65965,251.371713 614.999926,243.874085 620.349067,233.640236 C624.841326,225.04431 625.809144,215.276444 624.401408,205.654594 C621.732576,187.419042 611.761113,171.06012 597.912002,158.817592 C589.046072,150.980952 578.602814,145.213937 567.384282,141.397194 C560.033197,138.895868 552.391385,137.27699 544.634811,137.031936 C535.831362,136.75514 527.045764,138.282599 518.817395,141.420048 Z"/>
        <path d="M524.971121 153.951058C512.051578 158.713655 501.849457 168.782274 495.289677 180.890012 488.692951 193.067582 486.04305 207.142065 489.560539 220.500444 491.772188 228.900694 496.319062 236.541672 503.227915 241.801986 512.102537 248.557992 523.512401 250.570446 534.741359 250.943734 545.647996 251.308134 556.536798 249.926715 566.737645 246.092259 577.39458 242.086396 587.222147 235.674476 593.417566 226.193721 597.433186 220.047165 599.517435 212.92295 599.923838 205.593046 600.765946 190.379654 594.58709 175.586528 583.258761 165.402367 571.907501 155.197891 556.600498 150.675265 541.262919 151.01808 535.695578 151.14251 530.190663 152.027482 524.971121 153.951058zM679 133C679 133 687.005247 140.12273 694.697461 147.575922 703.372039 155.98237 711.641965 164.810793 720.731376 172.763492 730.273793 181.114016 740.635696 188.462985 750.664205 196.231387 769.021175 210.452698 786.187092 226.189051 805.103958 239.650299 816.896142 248.040224 829.285124 255.540444 841.455238 263.37748 848.609188 267.984885 855.690606 272.713036 862.479351 277.842825 875.322612 287.549514 887.140246 298.514502 899.102943 309.293923 904.676458 314.315676 910.356862 319.221768 916.399927 323.662671 925.13813 330.085075 934.844699 335.312732 945.560354 336.661272 960.176197 338.500421 974.486642 332.667764 986.188479 323.594036 996.346783 315.715056 1004.38257 305.524112 1011.27693 294.650637 1019.13711 282.254494 1025.62555 268.992794 1034.55081 257.354172 1040.1256 250.085276 1046.69166 243.628555 1054.32152 238.569942 1065.33366 231.270542 1078.29272 226.940217 1091.41212 228.146404 1101.26757 229.052632 1110.47277 233.013094 1119.72252 236.622757 1133.85481 242.138933 1148.41212 246.455277 1163.01906 250.55682 1179.17334 255.091778 1195.41416 259.39414 1211.91075 262.447102 1224.76673 264.825159 1237.79069 266.111419 1250.72557 268.035725 1265.53992 270.239654 1281.7133 274.046323 1292.92395 264.67518 1296.92212 261.332428 1299.56636 256.764425 1300.53727 251.64099 1303.17006 237.751413 1293.70908 224.815091 1293.70908 224.815091"/>
        <path d="M709,142 C709,142 730.104389,159.103646 750.567134,176.962446 C772.139098,195.789064 793.07577,215.498179 817.214312,230.820276 C836.625014,243.140861 857.81072,252.346598 877.641985,263.988437 C891.843295,272.325684 905.458866,282.00769 921.249675,286.47621 C934.409107,290.198491 948.732393,290.338571 960.327736,283.235292 C970.896449,276.762368 977.272236,265.632455 984.289668,255.278069 C991.341405,244.872746 999.450268,235.246772 1007.54388,225.632259 C1019.08205,211.924891 1031.22756,197.967929 1048.08057,192.452637 C1062.84729,187.621184 1078.71307,190.196091 1093.61955,194.906566 C1107.74844,199.371266 1121.20773,205.69647 1134.04316,213.124477 C1146.87859,220.552485 1159.20579,229.008163 1173.13393,234.006436 C1185.3239,238.381995 1198.32324,240.048935 1211.27049,239.517908 C1220.09469,239.154976 1228.88204,237.779655 1237.01759,234.35154 C1243.62335,231.567788 1249.78695,227.590818 1253.86933,221.71132 C1256.39398,218.07436 1258,213.897459 1258,213.897459"/>
        <path d="M727 142C727 142 740.448869 154.43937 754.75523 165.846909 769.477613 177.584787 784.881918 188.420928 800.117015 199.484098 810.534132 207.051286 820.788402 214.891418 831.97268 221.253315 846.202706 229.348535 861.587928 235.034448 877.195791 239.995911 891.676449 244.598976 906.574402 248.538811 921.528333 246.403724 931.717719 244.948446 941.16157 240.481854 949.49221 234.424788 957.494612 228.604953 964.149709 221.135974 971.715732 214.749844 978.304673 209.188924 985.380882 204.260622 992.390935 199.237938 1002.35513 192.099298 1012 184.525733 1012 184.525733M902.799659 465.721001C905.333684 459.429505 907.600568 452.986759 908.459236 446.263121 909.525257 437.911319 908.433794 429.376492 910.312687 421.183567 911.484292 416.077923 913.849128 411.334516 917.159135 407.274913 922.676237 400.509331 930.447502 396.137059 937.999965 391.69234 949.311487 385.036065 960.537778 378.239979 971.948524 371.757832 986.269836 363.624644 1000.94734 355.945206 1013.46481 345.276355 1023.82226 336.449196 1032.54124 325.921426 1041.20552 315.411451 1050.84295 303.719437 1060.52873 291.958789 1072.42669 282.609245 1079.63696 276.944357 1087.64865 272.348388 1096.43632 269.773323 1109.90151 265.829382 1124.1694 266.926263 1138.20322 268.024415 1154.07904 269.267462 1169.9892 270.711328 1185.36 274.816688 1198.89388 278.431438 1211.75482 284.096326 1224.23413 290.472979 1235.83188 296.399695 1247.29605 302.926328 1256.07609 312.499569 1261.20139 318.088197 1265.1907 324.59068 1267.95751 331.651136 1272.61977 343.550324 1273.84353 356.499366 1272.46966 369.218355 1270.85663 384.150171 1265.59014 398.356241 1261.46598 412.82541 1259.30087 420.418419 1257.47922 428.102941 1255.73135 435.803986 1251.64791 453.786224 1247.99825 471.865059 1244.22138 489.914661 1240.64551 507.013548 1236.95133 524.121332 1231.10475 540.574546 1225.23146 557.107834 1217.19305 572.783191 1207.2554 587.244733 1194.59036 605.675638 1179.04911 621.912781 1162.22684 636.667927 1152.1658 645.492544 1141.64298 653.773169 1130.6851 661.455148 1119.62291 669.209576 1108.21725 676.464496 1096.64368 683.437253 1078.29489 694.492491 1059.56702 704.896972 1040.72975 715.100634 1023.55512 724.404422 1006.09044 734.088241 986.712528 735.734198 975.693589 736.669661 964.69246 734.989386 953.795643 732.97865 931.762854 728.91142 909.861092 724.103192 887.673106 721.009556 878.333341 719.706772 868.96559 718.606078 859.67798 716.976644 845.074261 714.41556 830.613017 710.668625 817.385711 704.011079 812.222254 701.411865 807.367916 698.264846 803.024964 694.456903 792.346948 685.098462 785.31223 672.432855 779.5 659.446954 774.409052 648.075234 770.507519 636.215447 767.954412 624.023927 764.985328 609.850903 763.89641 595.268615 766.365558 581.021872 770.078821 559.590115 781.598967 540.373727 797.200013 525.124158 808.524256 514.054939 821.832976 504.985017 837.084195 500.775435 845.405007 498.478721 854.005682 497.486063 862.52367 496.037112 873.112639 494.237363 883.874613 491.533927 891.587361 484.184951 896.855131 479.165736 900.071003 472.494209 902.799659 465.721001z"/>
        <path d="M791.945795,636.316684 C788.371325,624.268455 786.399072,611.736009 787.163304,599.202292 C787.66813,590.931209 789.428025,582.757985 793.137286,575.357475 C796.754991,568.137434 802.011789,561.845157 808.457535,556.977571 C813.709247,553.012331 819.676871,550.086696 826.116259,548.75224 C836.297968,546.641259 846.81538,548.37478 856.749128,551.582557 C864.789461,554.179027 872.499178,557.676572 880.502635,560.389965 C886.338012,562.367502 892.416265,563.769316 898.499605,562.982622 C906.485259,561.950643 913.346818,557.131351 918.601074,550.992855 C926.532049,541.726649 930.210791,529.781364 933.499152,517.980962 C937.653472,503.070643 941.138931,487.976043 945.663287,473.173752 C948.767265,463.022992 952.425661,453.05143 956.922043,443.438265 C962.814642,430.841003 970.160681,418.959263 979.093678,408.307765 C989.29319,396.146425 1001.47004,385.857136 1013.5884,375.58691 C1028.78403,362.707506 1044.02671,349.885293 1059.08628,336.848296 C1073.73767,324.165883 1088.24028,311.078049 1105.42216,302.190574 C1114.88922,297.293757 1125.01371,293.766981 1135.5413,292.118611 C1145.81711,290.509639 1156.29255,290.645626 1166.53276,292.46684 C1178.1412,294.532069 1189.23974,298.72226 1199.68213,304.211322 C1209.50143,309.373759 1218.81082,315.669848 1225.59227,324.414981 C1231.61966,332.19041 1235.33655,341.455346 1237.26048,351.119347 C1239.3866,361.787367 1239.35481,372.73753 1238.28157,383.57331 C1236.63358,400.206983 1232.63567,416.502594 1230.29083,433.058741 C1227.20339,454.865019 1227.05079,477.010629 1223.16097,498.679649 C1220.87717,511.406544 1217.30143,523.855109 1213.13185,536.097787 C1209.03729,548.120598 1204.26498,559.912103 1198.20198,571.066882 C1188.5607,588.803705 1175.69719,604.542657 1161.08522,618.483271 C1139.82532,638.76954 1115.00494,654.822407 1089.19525,668.919343 C1077.3274,675.399715 1065.19633,681.428913 1052.39512,685.765258 C1037.13845,690.932779 1021.17986,693.653798 1005.70193,698.129944 C998.786964,700.130357 991.961009,702.430704 984.973562,704.155329 C974.251422,706.805177 963.232999,708.154884 952.190415,707.985853 C945.31614,707.881638 938.472383,707.15849 931.62354,706.549724 C918.346754,705.370319 905.039449,704.58871 891.814798,702.953048 C876.714536,701.08481 861.766865,698.088004 847.138367,693.918147 C843.223107,692.802288 839.375243,691.483083 835.662168,689.820733 C823.238625,684.260501 812.725028,675.106134 804.86399,663.998379 C798.939601,655.629435 794.86412,646.1548 791.945795,636.316684 Z"/>
        <path d="M825.018923,628.28941 C825.168849,622.703262 826.32379,617.175634 829.396007,612.539806 C833.90396,605.739997 841.744594,601.858571 849.862212,602.28348 C860.195688,602.825429 868.361587,610.383458 877.496923,615.520526 C887.782119,621.305135 899.544977,624.544108 911.22906,623.031485 C921.404987,621.714777 930.709308,616.847412 937.496648,609.121454 C944.705813,600.914613 948.333266,590.382224 951.970884,580.033029 C958.410089,561.712346 964.396975,543.246634 968.696555,524.320393 C971.460026,512.151979 973.092698,499.743122 975.834569,487.569619 C979.472187,471.406556 984.179617,455.431775 991.809339,440.73172 C999.568657,425.778501 1009.78524,412.304829 1021.39817,400.086799 C1036.48228,384.215065 1053.50272,370.390271 1071.07332,357.321153 C1088.30721,344.502654 1105.96039,331.981845 1125.75701,323.733022 C1135.49841,319.674763 1145.74167,316.617712 1156.26065,317.038804 C1167.43651,317.487884 1178.13464,321.589396 1187.07177,328.356129 C1198.33148,336.881015 1206.39446,349.065968 1208.99149,362.962004 C1212.49443,381.706324 1205.91927,400.459549 1203.74661,419.538452 C1201.7836,436.772692 1203.51664,454.178676 1203.38069,471.536318 C1203.25745,487.279562 1201.99705,503.045705 1198.48141,518.386939 C1194.62271,535.226803 1188.03739,551.265193 1179.6987,566.404151 C1170.28003,583.506084 1159.11306,599.713674 1145.00729,613.182257 C1135.75633,622.015012 1125.17255,629.197748 1114.40836,636.112053 C1093.50635,649.534838 1071.86233,662.620495 1047.43452,666.208046 C1030.11423,668.752409 1012.54998,665.771688 995.012424,665.774232 C977.107672,665.776777 959.42908,668.952141 941.694583,671.55248 C931.204827,673.091819 920.684578,674.562461 910.088096,674.9174 C894.857875,675.426272 879.726759,673.559982 864.9082,669.980064 C851.931956,666.845409 838.619013,662.494549 831.153194,651.632665 C826.494045,644.855755 824.797846,636.547139 825.018923,628.28941 Z"/>
        <path d="M996.22,554.832488 C1002.05156,538.200367 1010.50961,522.524364 1014.34022,505.344798 C1017.0073,493.38887 1017.42602,481.058642 1019.564,468.993225 C1022.75512,450.981035 1029.55988,433.769641 1039.73846,418.605435 C1047.31594,407.316624 1056.76748,397.446077 1067.49039,389.113466 C1081.90308,377.91632 1098.28372,369.602806 1115.25437,362.89725 C1126.06483,358.625912 1137.35238,354.840907 1148.81502,356.330465 C1156.33159,357.306953 1163.68956,360.455394 1167.38187,367.011994 C1171.00566,373.445101 1170.16442,381.189528 1169.58329,388.651321 C1168.80296,398.659366 1168.59614,408.713244 1169.43611,418.709831 C1170.74428,434.285258 1175.06593,449.460922 1176.435,465.031256 C1177.02627,471.763548 1177.07068,478.525121 1176.93872,485.284148 C1176.6545,499.779964 1175.65466,514.277052 1172.6323,528.446947 C1168.92223,545.844217 1162.2266,562.559091 1151.65087,576.813013 C1145.78759,584.714034 1138.80393,591.675488 1131.50052,598.266463 C1120.61266,608.091178 1109.05104,617.174934 1096.42615,624.603625 C1079.44534,634.59512 1060.4471,641.764094 1040.98065,639.618876 C1025.53894,637.917979 1011.16813,630.53512 1001.98812,617.987188 C993.230628,606.014709 989.885982,590.924344 991.321033,576.084784 C992.022698,568.820326 993.802872,561.725194 996.22,554.832488 Z"/>
        <path d="M1038.46699 563.270531C1043.80738 552.42639 1050.44906 542.29583 1057.40457 532.406535 1063.04221 524.393742 1068.98221 516.480518 1076.91752 510.788461 1084.64233 505.248311 1093.85596 501.878266 1103.35281 502.003366 1110.42953 502.096553 1117.30849 504.255169 1122.56085 508.973232 1129.64777 515.341851 1132.76576 524.943927 1132.98775 534.529408 1133.19825 543.614488 1130.67732 552.457027 1126.92017 560.759592 1122.85428 569.746379 1117.48455 578.139579 1110.12717 584.679254 1100.55122 593.189894 1088.45689 598.191348 1076.04872 601.523097 1068.05728 603.670224 1059.78771 605.04122 1051.81158 602.991109 1043.58284 600.874618 1036.27904 595.48127 1033.84359 587.418692 1031.39794 579.319095 1034.67795 570.965468 1038.46699 563.270531zM1083.87495 476.870255C1086.09744 479.230834 1088.35425 481.563432 1090.80675 483.682356 1093.55914 486.056926 1096.56695 488.173307 1100.03095 489.239128 1105.1507 490.814967 1110.81051 489.988256 1114.69257 486.335464 1119.26591 482.032749 1119.83138 475.304591 1120.88227 469.002507 1122.46687 459.495326 1125.2523 450.1484 1124.98163 440.538199 1124.74909 432.277445 1122.49228 424.084099 1117.77662 417.310154 1115.67357 414.289478 1113.0635 411.675798 1109.88542 409.831596 1094.23771 400.755577 1076.63435 414.842738 1070.93769 433.003679 1067.72022 443.261259 1068.43818 454.376075 1073.62782 463.768788 1076.31921 468.640025 1080.05769 472.814282 1083.87495 476.870255z"/>
      </g>
    </g>
  </g>
</svg>
